<?xml version="1.0" encoding="utf-8" standalone="no"?>
<!DOCTYPE svg PUBLIC "-//W3C//DTD SVG 1.1//EN"
  "http://www.w3.org/Graphics/SVG/1.1/DTD/svg11.dtd">
<!-- Created with matplotlib (https://matplotlib.org/) -->
<svg height="345.6pt" version="1.1" viewBox="0 0 460.8 345.6" width="460.8pt" xmlns="http://www.w3.org/2000/svg" xmlns:xlink="http://www.w3.org/1999/xlink">
 <defs>
  <style type="text/css">
*{stroke-linecap:butt;stroke-linejoin:round;white-space:pre;}
  </style>
 </defs>
 <g id="figure_1">
  <g id="patch_1">
   <path d="M 0 345.6 
L 460.8 345.6 
L 460.8 0 
L 0 0 
z
" style="fill:#f5f5f5;"/>
  </g>
  <g id="axes_1">
   <g id="patch_2">
    <path d="M 57.6 307.584 
L 414.72 307.584 
L 414.72 41.472 
L 57.6 41.472 
z
" style="fill:#ffffff;"/>
   </g>
   <g id="matplotlib.axis_1">
    <g id="xtick_1">
     <g id="line2d_1">
      <path clip-path="url(#p62362eb284)" d="M 62.504908 307.584 
L 62.504908 41.472 
" style="fill:none;stroke:#b0b0b0;stroke-linecap:square;stroke-width:0.8;"/>
     </g>
     <g id="line2d_2">
      <defs>
       <path d="M 0 0 
L 0 3.5 
" id="m9c22317132" style="stroke:#000000;stroke-width:0.8;"/>
      </defs>
      <g>
       <use style="stroke:#000000;stroke-width:0.8;" x="62.504908" xlink:href="#m9c22317132" y="307.584"/>
      </g>
     </g>
     <g id="text_1">
      <!-- 0.0 -->
      <defs>
       <path d="M 31.78125 66.40625 
Q 24.171875 66.40625 20.328125 58.90625 
Q 16.5 51.421875 16.5 36.375 
Q 16.5 21.390625 20.328125 13.890625 
Q 24.171875 6.390625 31.78125 6.390625 
Q 39.453125 6.390625 43.28125 13.890625 
Q 47.125 21.390625 47.125 36.375 
Q 47.125 51.421875 43.28125 58.90625 
Q 39.453125 66.40625 31.78125 66.40625 
z
M 31.78125 74.21875 
Q 44.046875 74.21875 50.515625 64.515625 
Q 56.984375 54.828125 56.984375 36.375 
Q 56.984375 17.96875 50.515625 8.265625 
Q 44.046875 -1.421875 31.78125 -1.421875 
Q 19.53125 -1.421875 13.0625 8.265625 
Q 6.59375 17.96875 6.59375 36.375 
Q 6.59375 54.828125 13.0625 64.515625 
Q 19.53125 74.21875 31.78125 74.21875 
z
" id="DejaVuSans-48"/>
       <path d="M 10.6875 12.40625 
L 21 12.40625 
L 21 0 
L 10.6875 0 
z
" id="DejaVuSans-46"/>
      </defs>
      <g transform="translate(54.553346 322.182437)scale(0.1 -0.1)">
       <use xlink:href="#DejaVuSans-48"/>
       <use x="63.623047" xlink:href="#DejaVuSans-46"/>
       <use x="95.410156" xlink:href="#DejaVuSans-48"/>
      </g>
     </g>
    </g>
    <g id="xtick_2">
     <g id="line2d_3">
      <path clip-path="url(#p62362eb284)" d="M 123.819211 307.584 
L 123.819211 41.472 
" style="fill:none;stroke:#b0b0b0;stroke-linecap:square;stroke-width:0.8;"/>
     </g>
     <g id="line2d_4">
      <g>
       <use style="stroke:#000000;stroke-width:0.8;" x="123.819211" xlink:href="#m9c22317132" y="307.584"/>
      </g>
     </g>
     <g id="text_2">
      <!-- 0.5 -->
      <defs>
       <path d="M 10.796875 72.90625 
L 49.515625 72.90625 
L 49.515625 64.59375 
L 19.828125 64.59375 
L 19.828125 46.734375 
Q 21.96875 47.46875 24.109375 47.828125 
Q 26.265625 48.1875 28.421875 48.1875 
Q 40.625 48.1875 47.75 41.5 
Q 54.890625 34.8125 54.890625 23.390625 
Q 54.890625 11.625 47.5625 5.09375 
Q 40.234375 -1.421875 26.90625 -1.421875 
Q 22.3125 -1.421875 17.546875 -0.640625 
Q 12.796875 0.140625 7.71875 1.703125 
L 7.71875 11.625 
Q 12.109375 9.234375 16.796875 8.0625 
Q 21.484375 6.890625 26.703125 6.890625 
Q 35.15625 6.890625 40.078125 11.328125 
Q 45.015625 15.765625 45.015625 23.390625 
Q 45.015625 31 40.078125 35.4375 
Q 35.15625 39.890625 26.703125 39.890625 
Q 22.75 39.890625 18.8125 39.015625 
Q 14.890625 38.140625 10.796875 36.28125 
z
" id="DejaVuSans-53"/>
      </defs>
      <g transform="translate(115.867648 322.182437)scale(0.1 -0.1)">
       <use xlink:href="#DejaVuSans-48"/>
       <use x="63.623047" xlink:href="#DejaVuSans-46"/>
       <use x="95.410156" xlink:href="#DejaVuSans-53"/>
      </g>
     </g>
    </g>
    <g id="xtick_3">
     <g id="line2d_5">
      <path clip-path="url(#p62362eb284)" d="M 185.133513 307.584 
L 185.133513 41.472 
" style="fill:none;stroke:#b0b0b0;stroke-linecap:square;stroke-width:0.8;"/>
     </g>
     <g id="line2d_6">
      <g>
       <use style="stroke:#000000;stroke-width:0.8;" x="185.133513" xlink:href="#m9c22317132" y="307.584"/>
      </g>
     </g>
     <g id="text_3">
      <!-- 1.0 -->
      <defs>
       <path d="M 12.40625 8.296875 
L 28.515625 8.296875 
L 28.515625 63.921875 
L 10.984375 60.40625 
L 10.984375 69.390625 
L 28.421875 72.90625 
L 38.28125 72.90625 
L 38.28125 8.296875 
L 54.390625 8.296875 
L 54.390625 0 
L 12.40625 0 
z
" id="DejaVuSans-49"/>
      </defs>
      <g transform="translate(177.181951 322.182437)scale(0.1 -0.1)">
       <use xlink:href="#DejaVuSans-49"/>
       <use x="63.623047" xlink:href="#DejaVuSans-46"/>
       <use x="95.410156" xlink:href="#DejaVuSans-48"/>
      </g>
     </g>
    </g>
    <g id="xtick_4">
     <g id="line2d_7">
      <path clip-path="url(#p62362eb284)" d="M 246.447816 307.584 
L 246.447816 41.472 
" style="fill:none;stroke:#b0b0b0;stroke-linecap:square;stroke-width:0.8;"/>
     </g>
     <g id="line2d_8">
      <g>
       <use style="stroke:#000000;stroke-width:0.8;" x="246.447816" xlink:href="#m9c22317132" y="307.584"/>
      </g>
     </g>
     <g id="text_4">
      <!-- 1.5 -->
      <g transform="translate(238.496253 322.182437)scale(0.1 -0.1)">
       <use xlink:href="#DejaVuSans-49"/>
       <use x="63.623047" xlink:href="#DejaVuSans-46"/>
       <use x="95.410156" xlink:href="#DejaVuSans-53"/>
      </g>
     </g>
    </g>
    <g id="xtick_5">
     <g id="line2d_9">
      <path clip-path="url(#p62362eb284)" d="M 307.762118 307.584 
L 307.762118 41.472 
" style="fill:none;stroke:#b0b0b0;stroke-linecap:square;stroke-width:0.8;"/>
     </g>
     <g id="line2d_10">
      <g>
       <use style="stroke:#000000;stroke-width:0.8;" x="307.762118" xlink:href="#m9c22317132" y="307.584"/>
      </g>
     </g>
     <g id="text_5">
      <!-- 2.0 -->
      <defs>
       <path d="M 19.1875 8.296875 
L 53.609375 8.296875 
L 53.609375 0 
L 7.328125 0 
L 7.328125 8.296875 
Q 12.9375 14.109375 22.625 23.890625 
Q 32.328125 33.6875 34.8125 36.53125 
Q 39.546875 41.84375 41.421875 45.53125 
Q 43.3125 49.21875 43.3125 52.78125 
Q 43.3125 58.59375 39.234375 62.25 
Q 35.15625 65.921875 28.609375 65.921875 
Q 23.96875 65.921875 18.8125 64.3125 
Q 13.671875 62.703125 7.8125 59.421875 
L 7.8125 69.390625 
Q 13.765625 71.78125 18.9375 73 
Q 24.125 74.21875 28.421875 74.21875 
Q 39.75 74.21875 46.484375 68.546875 
Q 53.21875 62.890625 53.21875 53.421875 
Q 53.21875 48.921875 51.53125 44.890625 
Q 49.859375 40.875 45.40625 35.40625 
Q 44.1875 33.984375 37.640625 27.21875 
Q 31.109375 20.453125 19.1875 8.296875 
z
" id="DejaVuSans-50"/>
      </defs>
      <g transform="translate(299.810556 322.182437)scale(0.1 -0.1)">
       <use xlink:href="#DejaVuSans-50"/>
       <use x="63.623047" xlink:href="#DejaVuSans-46"/>
       <use x="95.410156" xlink:href="#DejaVuSans-48"/>
      </g>
     </g>
    </g>
    <g id="xtick_6">
     <g id="line2d_11">
      <path clip-path="url(#p62362eb284)" d="M 369.076421 307.584 
L 369.076421 41.472 
" style="fill:none;stroke:#b0b0b0;stroke-linecap:square;stroke-width:0.8;"/>
     </g>
     <g id="line2d_12">
      <g>
       <use style="stroke:#000000;stroke-width:0.8;" x="369.076421" xlink:href="#m9c22317132" y="307.584"/>
      </g>
     </g>
     <g id="text_6">
      <!-- 2.5 -->
      <g transform="translate(361.124858 322.182437)scale(0.1 -0.1)">
       <use xlink:href="#DejaVuSans-50"/>
       <use x="63.623047" xlink:href="#DejaVuSans-46"/>
       <use x="95.410156" xlink:href="#DejaVuSans-53"/>
      </g>
     </g>
    </g>
    <g id="text_7">
     <!-- Bit-rate (bpp) -->
     <defs>
      <path d="M 19.671875 34.8125 
L 19.671875 8.109375 
L 35.5 8.109375 
Q 43.453125 8.109375 47.28125 11.40625 
Q 51.125 14.703125 51.125 21.484375 
Q 51.125 28.328125 47.28125 31.5625 
Q 43.453125 34.8125 35.5 34.8125 
z
M 19.671875 64.796875 
L 19.671875 42.828125 
L 34.28125 42.828125 
Q 41.5 42.828125 45.03125 45.53125 
Q 48.578125 48.25 48.578125 53.8125 
Q 48.578125 59.328125 45.03125 62.0625 
Q 41.5 64.796875 34.28125 64.796875 
z
M 9.8125 72.90625 
L 35.015625 72.90625 
Q 46.296875 72.90625 52.390625 68.21875 
Q 58.5 63.53125 58.5 54.890625 
Q 58.5 48.1875 55.375 44.234375 
Q 52.25 40.28125 46.1875 39.3125 
Q 53.46875 37.75 57.5 32.78125 
Q 61.53125 27.828125 61.53125 20.40625 
Q 61.53125 10.640625 54.890625 5.3125 
Q 48.25 0 35.984375 0 
L 9.8125 0 
z
" id="DejaVuSans-66"/>
      <path d="M 9.421875 54.6875 
L 18.40625 54.6875 
L 18.40625 0 
L 9.421875 0 
z
M 9.421875 75.984375 
L 18.40625 75.984375 
L 18.40625 64.59375 
L 9.421875 64.59375 
z
" id="DejaVuSans-105"/>
      <path d="M 18.3125 70.21875 
L 18.3125 54.6875 
L 36.8125 54.6875 
L 36.8125 47.703125 
L 18.3125 47.703125 
L 18.3125 18.015625 
Q 18.3125 11.328125 20.140625 9.421875 
Q 21.96875 7.515625 27.59375 7.515625 
L 36.8125 7.515625 
L 36.8125 0 
L 27.59375 0 
Q 17.1875 0 13.234375 3.875 
Q 9.28125 7.765625 9.28125 18.015625 
L 9.28125 47.703125 
L 2.6875 47.703125 
L 2.6875 54.6875 
L 9.28125 54.6875 
L 9.28125 70.21875 
z
" id="DejaVuSans-116"/>
      <path d="M 4.890625 31.390625 
L 31.203125 31.390625 
L 31.203125 23.390625 
L 4.890625 23.390625 
z
" id="DejaVuSans-45"/>
      <path d="M 41.109375 46.296875 
Q 39.59375 47.171875 37.8125 47.578125 
Q 36.03125 48 33.890625 48 
Q 26.265625 48 22.1875 43.046875 
Q 18.109375 38.09375 18.109375 28.8125 
L 18.109375 0 
L 9.078125 0 
L 9.078125 54.6875 
L 18.109375 54.6875 
L 18.109375 46.1875 
Q 20.953125 51.171875 25.484375 53.578125 
Q 30.03125 56 36.53125 56 
Q 37.453125 56 38.578125 55.875 
Q 39.703125 55.765625 41.0625 55.515625 
z
" id="DejaVuSans-114"/>
      <path d="M 34.28125 27.484375 
Q 23.390625 27.484375 19.1875 25 
Q 14.984375 22.515625 14.984375 16.5 
Q 14.984375 11.71875 18.140625 8.90625 
Q 21.296875 6.109375 26.703125 6.109375 
Q 34.1875 6.109375 38.703125 11.40625 
Q 43.21875 16.703125 43.21875 25.484375 
L 43.21875 27.484375 
z
M 52.203125 31.203125 
L 52.203125 0 
L 43.21875 0 
L 43.21875 8.296875 
Q 40.140625 3.328125 35.546875 0.953125 
Q 30.953125 -1.421875 24.3125 -1.421875 
Q 15.921875 -1.421875 10.953125 3.296875 
Q 6 8.015625 6 15.921875 
Q 6 25.140625 12.171875 29.828125 
Q 18.359375 34.515625 30.609375 34.515625 
L 43.21875 34.515625 
L 43.21875 35.40625 
Q 43.21875 41.609375 39.140625 45 
Q 35.0625 48.390625 27.6875 48.390625 
Q 23 48.390625 18.546875 47.265625 
Q 14.109375 46.140625 10.015625 43.890625 
L 10.015625 52.203125 
Q 14.9375 54.109375 19.578125 55.046875 
Q 24.21875 56 28.609375 56 
Q 40.484375 56 46.34375 49.84375 
Q 52.203125 43.703125 52.203125 31.203125 
z
" id="DejaVuSans-97"/>
      <path d="M 56.203125 29.59375 
L 56.203125 25.203125 
L 14.890625 25.203125 
Q 15.484375 15.921875 20.484375 11.0625 
Q 25.484375 6.203125 34.421875 6.203125 
Q 39.59375 6.203125 44.453125 7.46875 
Q 49.3125 8.734375 54.109375 11.28125 
L 54.109375 2.78125 
Q 49.265625 0.734375 44.1875 -0.34375 
Q 39.109375 -1.421875 33.890625 -1.421875 
Q 20.796875 -1.421875 13.15625 6.1875 
Q 5.515625 13.8125 5.515625 26.8125 
Q 5.515625 40.234375 12.765625 48.109375 
Q 20.015625 56 32.328125 56 
Q 43.359375 56 49.78125 48.890625 
Q 56.203125 41.796875 56.203125 29.59375 
z
M 47.21875 32.234375 
Q 47.125 39.59375 43.09375 43.984375 
Q 39.0625 48.390625 32.421875 48.390625 
Q 24.90625 48.390625 20.390625 44.140625 
Q 15.875 39.890625 15.1875 32.171875 
z
" id="DejaVuSans-101"/>
      <path id="DejaVuSans-32"/>
      <path d="M 31 75.875 
Q 24.46875 64.65625 21.28125 53.65625 
Q 18.109375 42.671875 18.109375 31.390625 
Q 18.109375 20.125 21.3125 9.0625 
Q 24.515625 -2 31 -13.1875 
L 23.1875 -13.1875 
Q 15.875 -1.703125 12.234375 9.375 
Q 8.59375 20.453125 8.59375 31.390625 
Q 8.59375 42.28125 12.203125 53.3125 
Q 15.828125 64.359375 23.1875 75.875 
z
" id="DejaVuSans-40"/>
      <path d="M 48.6875 27.296875 
Q 48.6875 37.203125 44.609375 42.84375 
Q 40.53125 48.484375 33.40625 48.484375 
Q 26.265625 48.484375 22.1875 42.84375 
Q 18.109375 37.203125 18.109375 27.296875 
Q 18.109375 17.390625 22.1875 11.75 
Q 26.265625 6.109375 33.40625 6.109375 
Q 40.53125 6.109375 44.609375 11.75 
Q 48.6875 17.390625 48.6875 27.296875 
z
M 18.109375 46.390625 
Q 20.953125 51.265625 25.265625 53.625 
Q 29.59375 56 35.59375 56 
Q 45.5625 56 51.78125 48.09375 
Q 58.015625 40.1875 58.015625 27.296875 
Q 58.015625 14.40625 51.78125 6.484375 
Q 45.5625 -1.421875 35.59375 -1.421875 
Q 29.59375 -1.421875 25.265625 0.953125 
Q 20.953125 3.328125 18.109375 8.203125 
L 18.109375 0 
L 9.078125 0 
L 9.078125 75.984375 
L 18.109375 75.984375 
z
" id="DejaVuSans-98"/>
      <path d="M 18.109375 8.203125 
L 18.109375 -20.796875 
L 9.078125 -20.796875 
L 9.078125 54.6875 
L 18.109375 54.6875 
L 18.109375 46.390625 
Q 20.953125 51.265625 25.265625 53.625 
Q 29.59375 56 35.59375 56 
Q 45.5625 56 51.78125 48.09375 
Q 58.015625 40.1875 58.015625 27.296875 
Q 58.015625 14.40625 51.78125 6.484375 
Q 45.5625 -1.421875 35.59375 -1.421875 
Q 29.59375 -1.421875 25.265625 0.953125 
Q 20.953125 3.328125 18.109375 8.203125 
z
M 48.6875 27.296875 
Q 48.6875 37.203125 44.609375 42.84375 
Q 40.53125 48.484375 33.40625 48.484375 
Q 26.265625 48.484375 22.1875 42.84375 
Q 18.109375 37.203125 18.109375 27.296875 
Q 18.109375 17.390625 22.1875 11.75 
Q 26.265625 6.109375 33.40625 6.109375 
Q 40.53125 6.109375 44.609375 11.75 
Q 48.6875 17.390625 48.6875 27.296875 
z
" id="DejaVuSans-112"/>
      <path d="M 8.015625 75.875 
L 15.828125 75.875 
Q 23.140625 64.359375 26.78125 53.3125 
Q 30.421875 42.28125 30.421875 31.390625 
Q 30.421875 20.453125 26.78125 9.375 
Q 23.140625 -1.703125 15.828125 -13.1875 
L 8.015625 -13.1875 
Q 14.5 -2 17.703125 9.0625 
Q 20.90625 20.125 20.90625 31.390625 
Q 20.90625 42.671875 17.703125 53.65625 
Q 14.5 64.65625 8.015625 75.875 
z
" id="DejaVuSans-41"/>
     </defs>
     <g transform="translate(202.406875 335.860562)scale(0.1 -0.1)">
      <use xlink:href="#DejaVuSans-66"/>
      <use x="68.603516" xlink:href="#DejaVuSans-105"/>
      <use x="96.386719" xlink:href="#DejaVuSans-116"/>
      <use x="135.595703" xlink:href="#DejaVuSans-45"/>
      <use x="171.679688" xlink:href="#DejaVuSans-114"/>
      <use x="212.792969" xlink:href="#DejaVuSans-97"/>
      <use x="274.072266" xlink:href="#DejaVuSans-116"/>
      <use x="313.28125" xlink:href="#DejaVuSans-101"/>
      <use x="374.804688" xlink:href="#DejaVuSans-32"/>
      <use x="406.591797" xlink:href="#DejaVuSans-40"/>
      <use x="445.605469" xlink:href="#DejaVuSans-98"/>
      <use x="509.082031" xlink:href="#DejaVuSans-112"/>
      <use x="572.558594" xlink:href="#DejaVuSans-112"/>
      <use x="636.035156" xlink:href="#DejaVuSans-41"/>
     </g>
    </g>
   </g>
   <g id="matplotlib.axis_2">
    <g id="ytick_1">
     <g id="line2d_13">
      <path clip-path="url(#p62362eb284)" d="M 57.6 290.047691 
L 414.72 290.047691 
" style="fill:none;stroke:#b0b0b0;stroke-linecap:square;stroke-width:0.8;"/>
     </g>
     <g id="line2d_14">
      <defs>
       <path d="M 0 0 
L -3.5 0 
" id="m05ad980d27" style="stroke:#000000;stroke-width:0.8;"/>
      </defs>
      <g>
       <use style="stroke:#000000;stroke-width:0.8;" x="57.6" xlink:href="#m05ad980d27" y="290.047691"/>
      </g>
     </g>
     <g id="text_8">
      <!-- 26 -->
      <defs>
       <path d="M 33.015625 40.375 
Q 26.375 40.375 22.484375 35.828125 
Q 18.609375 31.296875 18.609375 23.390625 
Q 18.609375 15.53125 22.484375 10.953125 
Q 26.375 6.390625 33.015625 6.390625 
Q 39.65625 6.390625 43.53125 10.953125 
Q 47.40625 15.53125 47.40625 23.390625 
Q 47.40625 31.296875 43.53125 35.828125 
Q 39.65625 40.375 33.015625 40.375 
z
M 52.59375 71.296875 
L 52.59375 62.3125 
Q 48.875 64.0625 45.09375 64.984375 
Q 41.3125 65.921875 37.59375 65.921875 
Q 27.828125 65.921875 22.671875 59.328125 
Q 17.53125 52.734375 16.796875 39.40625 
Q 19.671875 43.65625 24.015625 45.921875 
Q 28.375 48.1875 33.59375 48.1875 
Q 44.578125 48.1875 50.953125 41.515625 
Q 57.328125 34.859375 57.328125 23.390625 
Q 57.328125 12.15625 50.6875 5.359375 
Q 44.046875 -1.421875 33.015625 -1.421875 
Q 20.359375 -1.421875 13.671875 8.265625 
Q 6.984375 17.96875 6.984375 36.375 
Q 6.984375 53.65625 15.1875 63.9375 
Q 23.390625 74.21875 37.203125 74.21875 
Q 40.921875 74.21875 44.703125 73.484375 
Q 48.484375 72.75 52.59375 71.296875 
z
" id="DejaVuSans-54"/>
      </defs>
      <g transform="translate(37.875 293.846909)scale(0.1 -0.1)">
       <use xlink:href="#DejaVuSans-50"/>
       <use x="63.623047" xlink:href="#DejaVuSans-54"/>
      </g>
     </g>
    </g>
    <g id="ytick_2">
     <g id="line2d_15">
      <path clip-path="url(#p62362eb284)" d="M 57.6 259.492534 
L 414.72 259.492534 
" style="fill:none;stroke:#b0b0b0;stroke-linecap:square;stroke-width:0.8;"/>
     </g>
     <g id="line2d_16">
      <g>
       <use style="stroke:#000000;stroke-width:0.8;" x="57.6" xlink:href="#m05ad980d27" y="259.492534"/>
      </g>
     </g>
     <g id="text_9">
      <!-- 28 -->
      <defs>
       <path d="M 31.78125 34.625 
Q 24.75 34.625 20.71875 30.859375 
Q 16.703125 27.09375 16.703125 20.515625 
Q 16.703125 13.921875 20.71875 10.15625 
Q 24.75 6.390625 31.78125 6.390625 
Q 38.8125 6.390625 42.859375 10.171875 
Q 46.921875 13.96875 46.921875 20.515625 
Q 46.921875 27.09375 42.890625 30.859375 
Q 38.875 34.625 31.78125 34.625 
z
M 21.921875 38.8125 
Q 15.578125 40.375 12.03125 44.71875 
Q 8.5 49.078125 8.5 55.328125 
Q 8.5 64.0625 14.71875 69.140625 
Q 20.953125 74.21875 31.78125 74.21875 
Q 42.671875 74.21875 48.875 69.140625 
Q 55.078125 64.0625 55.078125 55.328125 
Q 55.078125 49.078125 51.53125 44.71875 
Q 48 40.375 41.703125 38.8125 
Q 48.828125 37.15625 52.796875 32.3125 
Q 56.78125 27.484375 56.78125 20.515625 
Q 56.78125 9.90625 50.3125 4.234375 
Q 43.84375 -1.421875 31.78125 -1.421875 
Q 19.734375 -1.421875 13.25 4.234375 
Q 6.78125 9.90625 6.78125 20.515625 
Q 6.78125 27.484375 10.78125 32.3125 
Q 14.796875 37.15625 21.921875 38.8125 
z
M 18.3125 54.390625 
Q 18.3125 48.734375 21.84375 45.5625 
Q 25.390625 42.390625 31.78125 42.390625 
Q 38.140625 42.390625 41.71875 45.5625 
Q 45.3125 48.734375 45.3125 54.390625 
Q 45.3125 60.0625 41.71875 63.234375 
Q 38.140625 66.40625 31.78125 66.40625 
Q 25.390625 66.40625 21.84375 63.234375 
Q 18.3125 60.0625 18.3125 54.390625 
z
" id="DejaVuSans-56"/>
      </defs>
      <g transform="translate(37.875 263.291753)scale(0.1 -0.1)">
       <use xlink:href="#DejaVuSans-50"/>
       <use x="63.623047" xlink:href="#DejaVuSans-56"/>
      </g>
     </g>
    </g>
    <g id="ytick_3">
     <g id="line2d_17">
      <path clip-path="url(#p62362eb284)" d="M 57.6 228.937378 
L 414.72 228.937378 
" style="fill:none;stroke:#b0b0b0;stroke-linecap:square;stroke-width:0.8;"/>
     </g>
     <g id="line2d_18">
      <g>
       <use style="stroke:#000000;stroke-width:0.8;" x="57.6" xlink:href="#m05ad980d27" y="228.937378"/>
      </g>
     </g>
     <g id="text_10">
      <!-- 30 -->
      <defs>
       <path d="M 40.578125 39.3125 
Q 47.65625 37.796875 51.625 33 
Q 55.609375 28.21875 55.609375 21.1875 
Q 55.609375 10.40625 48.1875 4.484375 
Q 40.765625 -1.421875 27.09375 -1.421875 
Q 22.515625 -1.421875 17.65625 -0.515625 
Q 12.796875 0.390625 7.625 2.203125 
L 7.625 11.71875 
Q 11.71875 9.328125 16.59375 8.109375 
Q 21.484375 6.890625 26.8125 6.890625 
Q 36.078125 6.890625 40.9375 10.546875 
Q 45.796875 14.203125 45.796875 21.1875 
Q 45.796875 27.640625 41.28125 31.265625 
Q 36.765625 34.90625 28.71875 34.90625 
L 20.21875 34.90625 
L 20.21875 43.015625 
L 29.109375 43.015625 
Q 36.375 43.015625 40.234375 45.921875 
Q 44.09375 48.828125 44.09375 54.296875 
Q 44.09375 59.90625 40.109375 62.90625 
Q 36.140625 65.921875 28.71875 65.921875 
Q 24.65625 65.921875 20.015625 65.03125 
Q 15.375 64.15625 9.8125 62.3125 
L 9.8125 71.09375 
Q 15.4375 72.65625 20.34375 73.4375 
Q 25.25 74.21875 29.59375 74.21875 
Q 40.828125 74.21875 47.359375 69.109375 
Q 53.90625 64.015625 53.90625 55.328125 
Q 53.90625 49.265625 50.4375 45.09375 
Q 46.96875 40.921875 40.578125 39.3125 
z
" id="DejaVuSans-51"/>
      </defs>
      <g transform="translate(37.875 232.736597)scale(0.1 -0.1)">
       <use xlink:href="#DejaVuSans-51"/>
       <use x="63.623047" xlink:href="#DejaVuSans-48"/>
      </g>
     </g>
    </g>
    <g id="ytick_4">
     <g id="line2d_19">
      <path clip-path="url(#p62362eb284)" d="M 57.6 198.382221 
L 414.72 198.382221 
" style="fill:none;stroke:#b0b0b0;stroke-linecap:square;stroke-width:0.8;"/>
     </g>
     <g id="line2d_20">
      <g>
       <use style="stroke:#000000;stroke-width:0.8;" x="57.6" xlink:href="#m05ad980d27" y="198.382221"/>
      </g>
     </g>
     <g id="text_11">
      <!-- 32 -->
      <g transform="translate(37.875 202.18144)scale(0.1 -0.1)">
       <use xlink:href="#DejaVuSans-51"/>
       <use x="63.623047" xlink:href="#DejaVuSans-50"/>
      </g>
     </g>
    </g>
    <g id="ytick_5">
     <g id="line2d_21">
      <path clip-path="url(#p62362eb284)" d="M 57.6 167.827065 
L 414.72 167.827065 
" style="fill:none;stroke:#b0b0b0;stroke-linecap:square;stroke-width:0.8;"/>
     </g>
     <g id="line2d_22">
      <g>
       <use style="stroke:#000000;stroke-width:0.8;" x="57.6" xlink:href="#m05ad980d27" y="167.827065"/>
      </g>
     </g>
     <g id="text_12">
      <!-- 34 -->
      <defs>
       <path d="M 37.796875 64.3125 
L 12.890625 25.390625 
L 37.796875 25.390625 
z
M 35.203125 72.90625 
L 47.609375 72.90625 
L 47.609375 25.390625 
L 58.015625 25.390625 
L 58.015625 17.1875 
L 47.609375 17.1875 
L 47.609375 0 
L 37.796875 0 
L 37.796875 17.1875 
L 4.890625 17.1875 
L 4.890625 26.703125 
z
" id="DejaVuSans-52"/>
      </defs>
      <g transform="translate(37.875 171.626284)scale(0.1 -0.1)">
       <use xlink:href="#DejaVuSans-51"/>
       <use x="63.623047" xlink:href="#DejaVuSans-52"/>
      </g>
     </g>
    </g>
    <g id="ytick_6">
     <g id="line2d_23">
      <path clip-path="url(#p62362eb284)" d="M 57.6 137.271909 
L 414.72 137.271909 
" style="fill:none;stroke:#b0b0b0;stroke-linecap:square;stroke-width:0.8;"/>
     </g>
     <g id="line2d_24">
      <g>
       <use style="stroke:#000000;stroke-width:0.8;" x="57.6" xlink:href="#m05ad980d27" y="137.271909"/>
      </g>
     </g>
     <g id="text_13">
      <!-- 36 -->
      <g transform="translate(37.875 141.071127)scale(0.1 -0.1)">
       <use xlink:href="#DejaVuSans-51"/>
       <use x="63.623047" xlink:href="#DejaVuSans-54"/>
      </g>
     </g>
    </g>
    <g id="ytick_7">
     <g id="line2d_25">
      <path clip-path="url(#p62362eb284)" d="M 57.6 106.716752 
L 414.72 106.716752 
" style="fill:none;stroke:#b0b0b0;stroke-linecap:square;stroke-width:0.8;"/>
     </g>
     <g id="line2d_26">
      <g>
       <use style="stroke:#000000;stroke-width:0.8;" x="57.6" xlink:href="#m05ad980d27" y="106.716752"/>
      </g>
     </g>
     <g id="text_14">
      <!-- 38 -->
      <g transform="translate(37.875 110.515971)scale(0.1 -0.1)">
       <use xlink:href="#DejaVuSans-51"/>
       <use x="63.623047" xlink:href="#DejaVuSans-56"/>
      </g>
     </g>
    </g>
    <g id="ytick_8">
     <g id="line2d_27">
      <path clip-path="url(#p62362eb284)" d="M 57.6 76.161596 
L 414.72 76.161596 
" style="fill:none;stroke:#b0b0b0;stroke-linecap:square;stroke-width:0.8;"/>
     </g>
     <g id="line2d_28">
      <g>
       <use style="stroke:#000000;stroke-width:0.8;" x="57.6" xlink:href="#m05ad980d27" y="76.161596"/>
      </g>
     </g>
     <g id="text_15">
      <!-- 40 -->
      <g transform="translate(37.875 79.960814)scale(0.1 -0.1)">
       <use xlink:href="#DejaVuSans-52"/>
       <use x="63.623047" xlink:href="#DejaVuSans-48"/>
      </g>
     </g>
    </g>
    <g id="ytick_9">
     <g id="line2d_29">
      <path clip-path="url(#p62362eb284)" d="M 57.6 45.606439 
L 414.72 45.606439 
" style="fill:none;stroke:#b0b0b0;stroke-linecap:square;stroke-width:0.8;"/>
     </g>
     <g id="line2d_30">
      <g>
       <use style="stroke:#000000;stroke-width:0.8;" x="57.6" xlink:href="#m05ad980d27" y="45.606439"/>
      </g>
     </g>
     <g id="text_16">
      <!-- 42 -->
      <g transform="translate(37.875 49.405658)scale(0.1 -0.1)">
       <use xlink:href="#DejaVuSans-52"/>
       <use x="63.623047" xlink:href="#DejaVuSans-50"/>
      </g>
     </g>
    </g>
    <g id="text_17">
     <!-- PSNR (dB) -->
     <defs>
      <path d="M 19.671875 64.796875 
L 19.671875 37.40625 
L 32.078125 37.40625 
Q 38.96875 37.40625 42.71875 40.96875 
Q 46.484375 44.53125 46.484375 51.125 
Q 46.484375 57.671875 42.71875 61.234375 
Q 38.96875 64.796875 32.078125 64.796875 
z
M 9.8125 72.90625 
L 32.078125 72.90625 
Q 44.34375 72.90625 50.609375 67.359375 
Q 56.890625 61.8125 56.890625 51.125 
Q 56.890625 40.328125 50.609375 34.8125 
Q 44.34375 29.296875 32.078125 29.296875 
L 19.671875 29.296875 
L 19.671875 0 
L 9.8125 0 
z
" id="DejaVuSans-80"/>
      <path d="M 53.515625 70.515625 
L 53.515625 60.890625 
Q 47.90625 63.578125 42.921875 64.890625 
Q 37.9375 66.21875 33.296875 66.21875 
Q 25.25 66.21875 20.875 63.09375 
Q 16.5 59.96875 16.5 54.203125 
Q 16.5 49.359375 19.40625 46.890625 
Q 22.3125 44.4375 30.421875 42.921875 
L 36.375 41.703125 
Q 47.40625 39.59375 52.65625 34.296875 
Q 57.90625 29 57.90625 20.125 
Q 57.90625 9.515625 50.796875 4.046875 
Q 43.703125 -1.421875 29.984375 -1.421875 
Q 24.8125 -1.421875 18.96875 -0.25 
Q 13.140625 0.921875 6.890625 3.21875 
L 6.890625 13.375 
Q 12.890625 10.015625 18.65625 8.296875 
Q 24.421875 6.59375 29.984375 6.59375 
Q 38.421875 6.59375 43.015625 9.90625 
Q 47.609375 13.234375 47.609375 19.390625 
Q 47.609375 24.75 44.3125 27.78125 
Q 41.015625 30.8125 33.5 32.328125 
L 27.484375 33.5 
Q 16.453125 35.6875 11.515625 40.375 
Q 6.59375 45.0625 6.59375 53.421875 
Q 6.59375 63.09375 13.40625 68.65625 
Q 20.21875 74.21875 32.171875 74.21875 
Q 37.3125 74.21875 42.625 73.28125 
Q 47.953125 72.359375 53.515625 70.515625 
z
" id="DejaVuSans-83"/>
      <path d="M 9.8125 72.90625 
L 23.09375 72.90625 
L 55.421875 11.921875 
L 55.421875 72.90625 
L 64.984375 72.90625 
L 64.984375 0 
L 51.703125 0 
L 19.390625 60.984375 
L 19.390625 0 
L 9.8125 0 
z
" id="DejaVuSans-78"/>
      <path d="M 44.390625 34.1875 
Q 47.5625 33.109375 50.5625 29.59375 
Q 53.5625 26.078125 56.59375 19.921875 
L 66.609375 0 
L 56 0 
L 46.6875 18.703125 
Q 43.0625 26.03125 39.671875 28.421875 
Q 36.28125 30.8125 30.421875 30.8125 
L 19.671875 30.8125 
L 19.671875 0 
L 9.8125 0 
L 9.8125 72.90625 
L 32.078125 72.90625 
Q 44.578125 72.90625 50.734375 67.671875 
Q 56.890625 62.453125 56.890625 51.90625 
Q 56.890625 45.015625 53.6875 40.46875 
Q 50.484375 35.9375 44.390625 34.1875 
z
M 19.671875 64.796875 
L 19.671875 38.921875 
L 32.078125 38.921875 
Q 39.203125 38.921875 42.84375 42.21875 
Q 46.484375 45.515625 46.484375 51.90625 
Q 46.484375 58.296875 42.84375 61.546875 
Q 39.203125 64.796875 32.078125 64.796875 
z
" id="DejaVuSans-82"/>
      <path d="M 45.40625 46.390625 
L 45.40625 75.984375 
L 54.390625 75.984375 
L 54.390625 0 
L 45.40625 0 
L 45.40625 8.203125 
Q 42.578125 3.328125 38.25 0.953125 
Q 33.9375 -1.421875 27.875 -1.421875 
Q 17.96875 -1.421875 11.734375 6.484375 
Q 5.515625 14.40625 5.515625 27.296875 
Q 5.515625 40.1875 11.734375 48.09375 
Q 17.96875 56 27.875 56 
Q 33.9375 56 38.25 53.625 
Q 42.578125 51.265625 45.40625 46.390625 
z
M 14.796875 27.296875 
Q 14.796875 17.390625 18.875 11.75 
Q 22.953125 6.109375 30.078125 6.109375 
Q 37.203125 6.109375 41.296875 11.75 
Q 45.40625 17.390625 45.40625 27.296875 
Q 45.40625 37.203125 41.296875 42.84375 
Q 37.203125 48.484375 30.078125 48.484375 
Q 22.953125 48.484375 18.875 42.84375 
Q 14.796875 37.203125 14.796875 27.296875 
z
" id="DejaVuSans-100"/>
     </defs>
     <g transform="translate(31.795312 200.027219)rotate(-90)scale(0.1 -0.1)">
      <use xlink:href="#DejaVuSans-80"/>
      <use x="60.302734" xlink:href="#DejaVuSans-83"/>
      <use x="123.779297" xlink:href="#DejaVuSans-78"/>
      <use x="198.583984" xlink:href="#DejaVuSans-82"/>
      <use x="268.066406" xlink:href="#DejaVuSans-32"/>
      <use x="299.853516" xlink:href="#DejaVuSans-40"/>
      <use x="338.867188" xlink:href="#DejaVuSans-100"/>
      <use x="402.34375" xlink:href="#DejaVuSans-66"/>
      <use x="470.947266" xlink:href="#DejaVuSans-41"/>
     </g>
    </g>
   </g>
   <g id="line2d_31">
    <path clip-path="url(#p62362eb284)" d="M 76.879606 283.746714 
L 100.330905 237.025301 
L 153.45928 183.479555 
L 239.29789 130.094168 
" style="fill:none;"/>
    <defs>
     <path d="M 0 3 
C 0.795609 3 1.55874 2.683901 2.12132 2.12132 
C 2.683901 1.55874 3 0.795609 3 0 
C 3 -0.795609 2.683901 -1.55874 2.12132 -2.12132 
C 1.55874 -2.683901 0.795609 -3 0 -3 
C -0.795609 -3 -1.55874 -2.683901 -2.12132 -2.12132 
C -2.683901 -1.55874 -3 -0.795609 -3 0 
C -3 0.795609 -2.683901 1.55874 -2.12132 2.12132 
C -1.55874 2.683901 -0.795609 3 0 3 
z
" id="medbe7bca1a" style="stroke:#d9b3b0;"/>
    </defs>
    <g clip-path="url(#p62362eb284)">
     <use style="fill:#d9b3b0;stroke:#d9b3b0;" x="76.879606" xlink:href="#medbe7bca1a" y="283.746714"/>
     <use style="fill:#d9b3b0;stroke:#d9b3b0;" x="100.330905" xlink:href="#medbe7bca1a" y="237.025301"/>
     <use style="fill:#d9b3b0;stroke:#d9b3b0;" x="153.45928" xlink:href="#medbe7bca1a" y="183.479555"/>
     <use style="fill:#d9b3b0;stroke:#d9b3b0;" x="239.29789" xlink:href="#medbe7bca1a" y="130.094168"/>
    </g>
   </g>
   <g id="line2d_32">
    <path clip-path="url(#p62362eb284)" d="M 76.879606 283.746714 
L 80.940063 274.456768 
L 85.00052 265.669553 
L 89.060977 257.385068 
L 93.121434 249.603313 
L 97.181892 242.32429 
L 101.242349 235.547996 
L 105.302806 229.274433 
L 109.363263 223.5036 
L 113.42372 218.235498 
L 117.484177 213.470127 
L 121.544634 209.207486 
L 125.605091 205.447575 
L 129.665548 202.084577 
L 133.726005 198.792646 
L 137.786463 195.54884 
L 141.84692 192.353158 
L 145.907377 189.205601 
L 149.967834 186.106168 
L 154.028291 183.05486 
L 158.088748 180.051677 
L 162.149205 177.096618 
L 166.209662 174.189683 
L 170.270119 171.330874 
L 174.330576 168.520188 
L 178.391034 165.757628 
L 182.451491 163.043192 
L 186.511948 160.37688 
L 190.572405 157.758694 
L 194.632862 155.188631 
L 198.693319 152.666694 
L 202.753776 150.19288 
L 206.814233 147.767192 
L 210.87469 145.389628 
L 214.935147 143.060188 
L 218.995605 140.778874 
L 223.056062 138.545683 
L 227.116519 136.360618 
L 231.176976 134.223677 
L 235.237433 132.13486 
L 239.29789 130.094168 
" style="fill:none;stroke:#d9b3b0;stroke-linecap:square;stroke-width:1.5;"/>
   </g>
   <g id="line2d_33">
    <path clip-path="url(#p62362eb284)" d="M 77.612063 279.837586 
L 101.360565 233.545741 
L 154.139552 175.240183 
L 237.410509 122.55408 
" style="fill:none;"/>
    <defs>
     <path d="M 0 3 
C 0.795609 3 1.55874 2.683901 2.12132 2.12132 
C 2.683901 1.55874 3 0.795609 3 0 
C 3 -0.795609 2.683901 -1.55874 2.12132 -2.12132 
C 1.55874 -2.683901 0.795609 -3 0 -3 
C -0.795609 -3 -1.55874 -2.683901 -2.12132 -2.12132 
C -2.683901 -1.55874 -3 -0.795609 -3 0 
C -3 0.795609 -2.683901 1.55874 -2.12132 2.12132 
C -1.55874 2.683901 -0.795609 3 0 3 
z
" id="m475b9d2fa6" style="stroke:#186ccc;"/>
    </defs>
    <g clip-path="url(#p62362eb284)">
     <use style="fill:#186ccc;stroke:#186ccc;" x="77.612063" xlink:href="#m475b9d2fa6" y="279.837586"/>
     <use style="fill:#186ccc;stroke:#186ccc;" x="101.360565" xlink:href="#m475b9d2fa6" y="233.545741"/>
     <use style="fill:#186ccc;stroke:#186ccc;" x="154.139552" xlink:href="#m475b9d2fa6" y="175.240183"/>
     <use style="fill:#186ccc;stroke:#186ccc;" x="237.410509" xlink:href="#m475b9d2fa6" y="122.55408"/>
    </g>
   </g>
   <g id="line2d_34">
    <path clip-path="url(#p62362eb284)" d="M 77.612063 279.837586 
L 81.607024 271.038595 
L 85.601985 262.648857 
L 89.596946 254.668373 
L 93.591907 247.097142 
L 97.586869 239.935164 
L 101.58183 233.18244 
L 105.576791 226.838969 
L 109.571752 220.904751 
L 113.566713 215.379787 
L 117.561674 210.264077 
L 121.556636 205.55762 
L 125.551597 201.260416 
L 129.546558 197.339041 
L 133.541519 193.5464 
L 137.53648 189.832439 
L 141.531441 186.197156 
L 145.526403 182.640552 
L 149.521364 179.162628 
L 153.516325 175.763382 
L 157.511286 172.442816 
L 161.506247 169.200928 
L 165.501208 166.03772 
L 169.49617 162.95319 
L 173.491131 159.94734 
L 177.486092 157.020169 
L 181.481053 154.171676 
L 185.476014 151.401863 
L 189.470975 148.710729 
L 193.465937 146.098273 
L 197.460898 143.564497 
L 201.455859 141.1094 
L 205.45082 138.732981 
L 209.445781 136.435242 
L 213.440742 134.216182 
L 217.435703 132.075801 
L 221.430665 130.014098 
L 225.425626 128.031075 
L 229.420587 126.126731 
L 233.415548 124.301066 
L 237.410509 122.55408 
" style="fill:none;stroke:#186ccc;stroke-linecap:square;stroke-width:1.5;"/>
   </g>
   <g id="line2d_35">
    <path clip-path="url(#p62362eb284)" d="M 77.226187 277.582626 
L 86.689495 254.869458 
L 101.552463 228.962396 
L 123.044133 202.616255 
L 152.412884 172.886415 
L 191.07134 140.647544 
L 241.585284 106.727342 
L 303.755956 75.199848 
" style="fill:none;"/>
    <defs>
     <path d="M 0 3 
C 0.795609 3 1.55874 2.683901 2.12132 2.12132 
C 2.683901 1.55874 3 0.795609 3 0 
C 3 -0.795609 2.683901 -1.55874 2.12132 -2.12132 
C 1.55874 -2.683901 0.795609 -3 0 -3 
C -0.795609 -3 -1.55874 -2.683901 -2.12132 -2.12132 
C -2.683901 -1.55874 -3 -0.795609 -3 0 
C -3 0.795609 -2.683901 1.55874 -2.12132 2.12132 
C -1.55874 2.683901 -0.795609 3 0 3 
z
" id="m31fe5be0cf" style="stroke:#13565c;"/>
    </defs>
    <g clip-path="url(#p62362eb284)">
     <use style="fill:#13565c;stroke:#13565c;" x="77.226187" xlink:href="#m31fe5be0cf" y="277.582626"/>
     <use style="fill:#13565c;stroke:#13565c;" x="86.689495" xlink:href="#m31fe5be0cf" y="254.869458"/>
     <use style="fill:#13565c;stroke:#13565c;" x="101.552463" xlink:href="#m31fe5be0cf" y="228.962396"/>
     <use style="fill:#13565c;stroke:#13565c;" x="123.044133" xlink:href="#m31fe5be0cf" y="202.616255"/>
     <use style="fill:#13565c;stroke:#13565c;" x="152.412884" xlink:href="#m31fe5be0cf" y="172.886415"/>
     <use style="fill:#13565c;stroke:#13565c;" x="191.07134" xlink:href="#m31fe5be0cf" y="140.647544"/>
     <use style="fill:#13565c;stroke:#13565c;" x="241.585284" xlink:href="#m31fe5be0cf" y="106.727342"/>
     <use style="fill:#13565c;stroke:#13565c;" x="303.755956" xlink:href="#m31fe5be0cf" y="75.199848"/>
    </g>
   </g>
   <g id="line2d_36">
    <path clip-path="url(#p62362eb284)" d="M 77.226187 277.582626 
L 82.889431 263.359795 
L 88.552676 251.015668 
L 94.21592 240.55011 
L 99.879164 231.469062 
L 105.542408 223.310136 
L 111.205652 216.073332 
L 116.868897 209.52206 
L 122.532141 203.179974 
L 128.195385 197.033553 
L 133.858629 191.082797 
L 139.521874 185.32665 
L 145.185118 179.750022 
L 150.848362 174.347994 
L 156.511606 169.120566 
L 162.17485 164.067739 
L 167.838095 159.189513 
L 173.501339 154.482933 
L 179.164583 149.904271 
L 184.827827 145.438976 
L 190.491072 141.087049 
L 196.154316 136.848491 
L 201.81756 132.7233 
L 207.480804 128.711477 
L 213.144048 124.813022 
L 218.807293 121.025799 
L 224.470537 117.333179 
L 230.133781 113.731639 
L 235.797025 110.221178 
L 241.46027 106.801796 
L 247.123514 103.473495 
L 252.786758 100.236272 
L 258.450002 97.090129 
L 264.113246 94.035066 
L 269.776491 91.071082 
L 275.439735 88.198178 
L 281.102979 85.416353 
L 286.766223 82.725607 
L 292.429468 80.125941 
L 298.092712 77.617355 
L 303.755956 75.199848 
" style="fill:none;stroke:#13565c;stroke-linecap:square;stroke-width:1.5;"/>
   </g>
   <g id="line2d_37">
    <path clip-path="url(#p62362eb284)" d="M 78.138276 271.071951 
L 87.805229 243.226135 
L 101.890936 215.32842 
L 121.533896 187.137589 
L 146.501565 158.094641 
L 180.828173 124.11811 
L 223.213364 93.962483 
L 275.724048 63.510505 
" style="fill:none;"/>
    <defs>
     <path d="M 0 3 
C 0.795609 3 1.55874 2.683901 2.12132 2.12132 
C 2.683901 1.55874 3 0.795609 3 0 
C 3 -0.795609 2.683901 -1.55874 2.12132 -2.12132 
C 1.55874 -2.683901 0.795609 -3 0 -3 
C -0.795609 -3 -1.55874 -2.683901 -2.12132 -2.12132 
C -2.683901 -1.55874 -3 -0.795609 -3 0 
C -3 0.795609 -2.683901 1.55874 -2.12132 2.12132 
C -1.55874 2.683901 -0.795609 3 0 3 
z
" id="m63681b1bb7" style="stroke:#45a0a8;"/>
    </defs>
    <g clip-path="url(#p62362eb284)">
     <use style="fill:#45a0a8;stroke:#45a0a8;" x="78.138276" xlink:href="#m63681b1bb7" y="271.071951"/>
     <use style="fill:#45a0a8;stroke:#45a0a8;" x="87.805229" xlink:href="#m63681b1bb7" y="243.226135"/>
     <use style="fill:#45a0a8;stroke:#45a0a8;" x="101.890936" xlink:href="#m63681b1bb7" y="215.32842"/>
     <use style="fill:#45a0a8;stroke:#45a0a8;" x="121.533896" xlink:href="#m63681b1bb7" y="187.137589"/>
     <use style="fill:#45a0a8;stroke:#45a0a8;" x="146.501565" xlink:href="#m63681b1bb7" y="158.094641"/>
     <use style="fill:#45a0a8;stroke:#45a0a8;" x="180.828173" xlink:href="#m63681b1bb7" y="124.11811"/>
     <use style="fill:#45a0a8;stroke:#45a0a8;" x="223.213364" xlink:href="#m63681b1bb7" y="93.962483"/>
     <use style="fill:#45a0a8;stroke:#45a0a8;" x="275.724048" xlink:href="#m63681b1bb7" y="63.510505"/>
    </g>
   </g>
   <g id="line2d_38">
    <path clip-path="url(#p62362eb284)" d="M 78.138276 271.071951 
L 83.07792 255.864017 
L 88.017564 242.702465 
L 92.957209 231.587293 
L 97.896853 222.264857 
L 102.836497 213.754689 
L 107.776142 205.959224 
L 112.715786 198.869304 
L 117.65543 192.191194 
L 122.595074 185.783982 
L 127.534719 179.64767 
L 132.474363 173.782257 
L 137.414007 168.150115 
L 142.353652 162.637448 
L 147.293296 157.236487 
L 152.23294 151.947231 
L 157.172585 146.76968 
L 162.112229 141.703834 
L 167.051873 136.772862 
L 171.991517 132.047287 
L 176.931162 127.531976 
L 181.870806 123.226931 
L 186.81045 119.13215 
L 191.750095 115.247634 
L 196.689739 111.573383 
L 201.629383 108.109396 
L 206.569028 104.78762 
L 211.508672 101.516068 
L 216.448316 98.294237 
L 221.387961 95.122127 
L 226.327605 91.999738 
L 231.267249 88.92707 
L 236.206893 85.904123 
L 241.146538 82.930898 
L 246.086182 80.007393 
L 251.025826 77.133609 
L 255.965471 74.309546 
L 260.905115 71.535204 
L 265.844759 68.810584 
L 270.784404 66.135684 
L 275.724048 63.510505 
" style="fill:none;stroke:#45a0a8;stroke-linecap:square;stroke-width:1.5;"/>
   </g>
   <g id="line2d_39">
    <path clip-path="url(#p62362eb284)" d="M 73.832727 278.702037 
L 83.482008 246.596518 
L 98.530637 212.101574 
L 118.259151 183.408235 
L 144.057617 153.249683 
L 177.658317 121.707863 
L 219.503262 90.710028 
L 271.307269 61.091563 
" style="fill:none;"/>
    <defs>
     <path d="M 0 3 
C 0.795609 3 1.55874 2.683901 2.12132 2.12132 
C 2.683901 1.55874 3 0.795609 3 0 
C 3 -0.795609 2.683901 -1.55874 2.12132 -2.12132 
C 1.55874 -2.683901 0.795609 -3 0 -3 
C -0.795609 -3 -1.55874 -2.683901 -2.12132 -2.12132 
C -2.683901 -1.55874 -3 -0.795609 -3 0 
C -3 0.795609 -2.683901 1.55874 -2.12132 2.12132 
C -1.55874 2.683901 -0.795609 3 0 3 
z
" id="m60bed72d91" style="stroke:#7893ff;"/>
    </defs>
    <g clip-path="url(#p62362eb284)">
     <use style="fill:#7893ff;stroke:#7893ff;" x="73.832727" xlink:href="#m60bed72d91" y="278.702037"/>
     <use style="fill:#7893ff;stroke:#7893ff;" x="83.482008" xlink:href="#m60bed72d91" y="246.596518"/>
     <use style="fill:#7893ff;stroke:#7893ff;" x="98.530637" xlink:href="#m60bed72d91" y="212.101574"/>
     <use style="fill:#7893ff;stroke:#7893ff;" x="118.259151" xlink:href="#m60bed72d91" y="183.408235"/>
     <use style="fill:#7893ff;stroke:#7893ff;" x="144.057617" xlink:href="#m60bed72d91" y="153.249683"/>
     <use style="fill:#7893ff;stroke:#7893ff;" x="177.658317" xlink:href="#m60bed72d91" y="121.707863"/>
     <use style="fill:#7893ff;stroke:#7893ff;" x="219.503262" xlink:href="#m60bed72d91" y="90.710028"/>
     <use style="fill:#7893ff;stroke:#7893ff;" x="271.307269" xlink:href="#m60bed72d91" y="61.091563"/>
    </g>
   </g>
   <g id="line2d_40">
    <path clip-path="url(#p62362eb284)" d="M 73.832727 278.702037 
L 78.769591 261.22976 
L 83.706454 245.949382 
L 88.643318 232.860901 
L 93.580181 221.831259 
L 98.517045 212.126618 
L 103.453909 203.634827 
L 108.390772 196.355885 
L 113.327636 189.781438 
L 118.264499 183.401428 
L 123.201363 177.215856 
L 128.138226 171.224722 
L 133.07509 165.428457 
L 138.011953 159.831291 
L 142.948817 154.434299 
L 147.88568 149.237478 
L 152.822544 144.24083 
L 157.759408 139.444355 
L 162.696271 134.842869 
L 167.633135 130.38152 
L 172.569998 126.045581 
L 177.506862 121.835052 
L 182.443725 117.749935 
L 187.380589 113.790228 
L 192.317452 109.955931 
L 197.254316 106.247045 
L 202.19118 102.652304 
L 207.128043 99.142363 
L 212.064907 95.715701 
L 217.00177 92.372319 
L 221.938634 89.112217 
L 226.875497 85.935393 
L 231.812361 82.84185 
L 236.749224 79.831586 
L 241.686088 76.904601 
L 246.622951 74.060896 
L 251.559815 71.30047 
L 256.496679 68.623324 
L 261.433542 66.029458 
L 266.370406 63.518871 
L 271.307269 61.091563 
" style="fill:none;stroke:#7893ff;stroke-linecap:square;stroke-width:1.5;"/>
   </g>
   <g id="line2d_41">
    <path clip-path="url(#p62362eb284)" d="M 74.834528 264.978831 
L 80.325043 247.247276 
L 87.340348 230.552025 
L 99.109762 210.622459 
L 115.72757 185.385004 
L 147.124662 149.895116 
L 184.443054 117.132843 
L 218.382435 92.391467 
L 257.805262 70.39105 
" style="fill:none;"/>
    <defs>
     <path d="M 0 3 
C 0.795609 3 1.55874 2.683901 2.12132 2.12132 
C 2.683901 1.55874 3 0.795609 3 0 
C 3 -0.795609 2.683901 -1.55874 2.12132 -2.12132 
C 1.55874 -2.683901 0.795609 -3 0 -3 
C -0.795609 -3 -1.55874 -2.683901 -2.12132 -2.12132 
C -2.683901 -1.55874 -3 -0.795609 -3 0 
C -3 0.795609 -2.683901 1.55874 -2.12132 2.12132 
C -1.55874 2.683901 -0.795609 3 0 3 
z
" id="m64d186da77" style="stroke:#5c371c;"/>
    </defs>
    <g clip-path="url(#p62362eb284)">
     <use style="fill:#5c371c;stroke:#5c371c;" x="74.834528" xlink:href="#m64d186da77" y="264.978831"/>
     <use style="fill:#5c371c;stroke:#5c371c;" x="80.325043" xlink:href="#m64d186da77" y="247.247276"/>
     <use style="fill:#5c371c;stroke:#5c371c;" x="87.340348" xlink:href="#m64d186da77" y="230.552025"/>
     <use style="fill:#5c371c;stroke:#5c371c;" x="99.109762" xlink:href="#m64d186da77" y="210.622459"/>
     <use style="fill:#5c371c;stroke:#5c371c;" x="115.72757" xlink:href="#m64d186da77" y="185.385004"/>
     <use style="fill:#5c371c;stroke:#5c371c;" x="147.124662" xlink:href="#m64d186da77" y="149.895116"/>
     <use style="fill:#5c371c;stroke:#5c371c;" x="184.443054" xlink:href="#m64d186da77" y="117.132843"/>
     <use style="fill:#5c371c;stroke:#5c371c;" x="218.382435" xlink:href="#m64d186da77" y="92.391467"/>
     <use style="fill:#5c371c;stroke:#5c371c;" x="257.805262" xlink:href="#m64d186da77" y="70.39105"/>
    </g>
   </g>
   <g id="line2d_42">
    <path clip-path="url(#p62362eb284)" d="M 74.834528 264.978831 
L 79.408796 249.902109 
L 83.983064 237.861759 
L 88.557333 228.122368 
L 93.131601 220.037199 
L 97.705869 212.828288 
L 102.280138 205.65243 
L 106.854406 198.509285 
L 111.428674 191.547622 
L 116.002943 185.002885 
L 120.577211 178.878021 
L 125.151479 173.173029 
L 129.725748 167.88791 
L 134.300016 162.964822 
L 138.874285 158.188789 
L 143.448553 153.539562 
L 148.022821 149.017142 
L 152.59709 144.621529 
L 157.171358 140.352722 
L 161.745626 136.210721 
L 166.319895 132.195197 
L 170.894163 128.27706 
L 175.468431 124.437528 
L 180.0427 120.676601 
L 184.616968 116.994278 
L 189.191236 113.39056 
L 193.765505 109.865447 
L 198.339773 106.418939 
L 202.914041 103.052186 
L 207.48831 99.780583 
L 212.062578 96.608951 
L 216.636846 93.53729 
L 221.211115 90.5656 
L 225.785383 87.693882 
L 230.359651 84.922135 
L 234.93392 82.25036 
L 239.508188 79.678555 
L 244.082456 77.206722 
L 248.656725 74.83486 
L 253.230993 72.562969 
L 257.805262 70.39105 
" style="fill:none;stroke:#5c371c;stroke-linecap:square;stroke-width:1.5;"/>
   </g>
   <g id="line2d_43">
    <path clip-path="url(#p62362eb284)" d="M 89.994179 295.488 
L 105.325561 272.596426 
L 120.590517 255.43475 
L 135.862646 239.9309 
L 151.185504 226.739967 
L 166.251909 214.560557 
L 181.580589 204.222459 
L 196.850015 194.954136 
L 212.146573 186.748532 
L 227.448432 179.810959 
L 242.761415 173.532162 
L 258.062858 168.506173 
L 273.352036 164.201083 
L 288.674478 160.682874 
L 303.942137 158.199492 
" style="fill:none;"/>
    <defs>
     <path d="M 0 3 
C 0.795609 3 1.55874 2.683901 2.12132 2.12132 
C 2.683901 1.55874 3 0.795609 3 0 
C 3 -0.795609 2.683901 -1.55874 2.12132 -2.12132 
C 1.55874 -2.683901 0.795609 -3 0 -3 
C -0.795609 -3 -1.55874 -2.683901 -2.12132 -2.12132 
C -2.683901 -1.55874 -3 -0.795609 -3 0 
C -3 0.795609 -2.683901 1.55874 -2.12132 2.12132 
C -1.55874 2.683901 -0.795609 3 0 3 
z
" id="mb2769d8b35" style="stroke:#90995f;"/>
    </defs>
    <g clip-path="url(#p62362eb284)">
     <use style="fill:#90995f;stroke:#90995f;" x="89.994179" xlink:href="#mb2769d8b35" y="295.488"/>
     <use style="fill:#90995f;stroke:#90995f;" x="105.325561" xlink:href="#mb2769d8b35" y="272.596426"/>
     <use style="fill:#90995f;stroke:#90995f;" x="120.590517" xlink:href="#mb2769d8b35" y="255.43475"/>
     <use style="fill:#90995f;stroke:#90995f;" x="135.862646" xlink:href="#mb2769d8b35" y="239.9309"/>
     <use style="fill:#90995f;stroke:#90995f;" x="151.185504" xlink:href="#mb2769d8b35" y="226.739967"/>
     <use style="fill:#90995f;stroke:#90995f;" x="166.251909" xlink:href="#mb2769d8b35" y="214.560557"/>
     <use style="fill:#90995f;stroke:#90995f;" x="181.580589" xlink:href="#mb2769d8b35" y="204.222459"/>
     <use style="fill:#90995f;stroke:#90995f;" x="196.850015" xlink:href="#mb2769d8b35" y="194.954136"/>
     <use style="fill:#90995f;stroke:#90995f;" x="212.146573" xlink:href="#mb2769d8b35" y="186.748532"/>
     <use style="fill:#90995f;stroke:#90995f;" x="227.448432" xlink:href="#mb2769d8b35" y="179.810959"/>
     <use style="fill:#90995f;stroke:#90995f;" x="242.761415" xlink:href="#mb2769d8b35" y="173.532162"/>
     <use style="fill:#90995f;stroke:#90995f;" x="258.062858" xlink:href="#mb2769d8b35" y="168.506173"/>
     <use style="fill:#90995f;stroke:#90995f;" x="273.352036" xlink:href="#mb2769d8b35" y="164.201083"/>
     <use style="fill:#90995f;stroke:#90995f;" x="288.674478" xlink:href="#mb2769d8b35" y="160.682874"/>
     <use style="fill:#90995f;stroke:#90995f;" x="303.942137" xlink:href="#mb2769d8b35" y="158.199492"/>
    </g>
   </g>
   <g id="line2d_44">
    <path clip-path="url(#p62362eb284)" d="M 89.994179 295.488 
L 95.342878 286.77718 
L 100.691577 278.842814 
L 106.040276 271.684901 
L 111.388975 265.303442 
L 116.737674 259.524984 
L 122.086372 253.858159 
L 127.435071 248.273074 
L 132.78377 242.873729 
L 138.132469 237.839515 
L 143.481168 233.173569 
L 148.829867 228.703243 
L 154.178566 224.250295 
L 159.527265 219.818143 
L 164.875964 215.595466 
L 170.224663 211.690445 
L 175.573362 208.092315 
L 180.922061 204.640937 
L 186.27076 201.282881 
L 191.619459 198.02195 
L 196.968158 194.88629 
L 202.316857 191.881608 
L 207.665556 189.016019 
L 213.014255 186.323846 
L 218.362954 183.808937 
L 223.711653 181.436652 
L 229.060352 179.116906 
L 234.40905 176.845046 
L 239.757749 174.672408 
L 245.106448 172.682184 
L 250.455147 170.875518 
L 255.803846 169.194875 
L 261.152545 167.584528 
L 266.501244 166.044762 
L 271.849943 164.591814 
L 277.198642 163.235084 
L 282.547341 161.975934 
L 287.89604 160.837738 
L 293.244739 159.828933 
L 298.593438 158.949517 
L 303.942137 158.199492 
" style="fill:none;stroke:#90995f;stroke-linecap:square;stroke-width:1.5;"/>
   </g>
   <g id="line2d_45">
    <path clip-path="url(#p62362eb284)" d="M 107.803809 272.03374 
L 145.492233 247.650131 
L 191.344944 226.680682 
" style="fill:none;"/>
    <defs>
     <path d="M 0 3 
C 0.795609 3 1.55874 2.683901 2.12132 2.12132 
C 2.683901 1.55874 3 0.795609 3 0 
C 3 -0.795609 2.683901 -1.55874 2.12132 -2.12132 
C 1.55874 -2.683901 0.795609 -3 0 -3 
C -0.795609 -3 -1.55874 -2.683901 -2.12132 -2.12132 
C -2.683901 -1.55874 -3 -0.795609 -3 0 
C -3 0.795609 -2.683901 1.55874 -2.12132 2.12132 
C -1.55874 2.683901 -0.795609 3 0 3 
z
" id="m61ca3a2327" style="stroke:#a86e45;"/>
    </defs>
    <g clip-path="url(#p62362eb284)">
     <use style="fill:#a86e45;stroke:#a86e45;" x="107.803809" xlink:href="#m61ca3a2327" y="272.03374"/>
     <use style="fill:#a86e45;stroke:#a86e45;" x="145.492233" xlink:href="#m61ca3a2327" y="247.650131"/>
     <use style="fill:#a86e45;stroke:#a86e45;" x="191.344944" xlink:href="#m61ca3a2327" y="226.680682"/>
    </g>
   </g>
   <g id="line2d_46">
    <path clip-path="url(#p62362eb284)" d="M 107.803809 272.03374 
L 109.892337 270.513712 
L 111.980866 269.01349 
L 114.069394 267.533073 
L 116.157923 266.072461 
L 118.246451 264.631654 
L 120.334979 263.210652 
L 122.423508 261.809456 
L 124.512036 260.428065 
L 126.600564 259.066478 
L 128.689093 257.724698 
L 130.777621 256.402722 
L 132.86615 255.100551 
L 134.954678 253.818186 
L 137.043206 252.555626 
L 139.131735 251.312871 
L 141.220263 250.089921 
L 143.308791 248.886777 
L 145.39732 247.703437 
L 147.485848 246.539903 
L 149.574376 245.396174 
L 151.662905 244.27225 
L 153.751433 243.168131 
L 155.839962 242.083818 
L 157.92849 241.01931 
L 160.017018 239.974606 
L 162.105547 238.949708 
L 164.194075 237.944616 
L 166.282603 236.959328 
L 168.371132 235.993846 
L 170.45966 235.048169 
L 172.548189 234.122297 
L 174.636717 233.21623 
L 176.725245 232.329968 
L 178.813774 231.463512 
L 180.902302 230.61686 
L 182.99083 229.790014 
L 185.079359 228.982973 
L 187.167887 228.195738 
L 189.256416 227.428307 
L 191.344944 226.680682 
" style="fill:none;stroke:#a86e45;stroke-linecap:square;stroke-width:1.5;"/>
   </g>
   <g id="line2d_47">
    <path clip-path="url(#p62362eb284)" d="M 99.673918 214.051846 
L 112.197099 194.916274 
L 127.882028 174.902817 
L 146.4683 154.726942 
L 168.778188 133.874066 
L 194.968351 113.212083 
L 224.302382 92.937023 
L 258.577429 72.914648 
L 299.142809 53.568 
" style="fill:none;"/>
    <defs>
     <path d="M 0 3 
C 0.795609 3 1.55874 2.683901 2.12132 2.12132 
C 2.683901 1.55874 3 0.795609 3 0 
C 3 -0.795609 2.683901 -1.55874 2.12132 -2.12132 
C 1.55874 -2.683901 0.795609 -3 0 -3 
C -0.795609 -3 -1.55874 -2.683901 -2.12132 -2.12132 
C -2.683901 -1.55874 -3 -0.795609 -3 0 
C -3 0.795609 -2.683901 1.55874 -2.12132 2.12132 
C -1.55874 2.683901 -0.795609 3 0 3 
z
" id="m68a032c366" style="stroke:#a8be2a;"/>
    </defs>
    <g clip-path="url(#p62362eb284)">
     <use style="fill:#a8be2a;stroke:#a8be2a;" x="99.673918" xlink:href="#m68a032c366" y="214.051846"/>
     <use style="fill:#a8be2a;stroke:#a8be2a;" x="112.197099" xlink:href="#m68a032c366" y="194.916274"/>
     <use style="fill:#a8be2a;stroke:#a8be2a;" x="127.882028" xlink:href="#m68a032c366" y="174.902817"/>
     <use style="fill:#a8be2a;stroke:#a8be2a;" x="146.4683" xlink:href="#m68a032c366" y="154.726942"/>
     <use style="fill:#a8be2a;stroke:#a8be2a;" x="168.778188" xlink:href="#m68a032c366" y="133.874066"/>
     <use style="fill:#a8be2a;stroke:#a8be2a;" x="194.968351" xlink:href="#m68a032c366" y="113.212083"/>
     <use style="fill:#a8be2a;stroke:#a8be2a;" x="224.302382" xlink:href="#m68a032c366" y="92.937023"/>
     <use style="fill:#a8be2a;stroke:#a8be2a;" x="258.577429" xlink:href="#m68a032c366" y="72.914648"/>
     <use style="fill:#a8be2a;stroke:#a8be2a;" x="299.142809" xlink:href="#m68a032c366" y="53.568"/>
    </g>
   </g>
   <g id="line2d_48">
    <path clip-path="url(#p62362eb284)" d="M 99.673918 214.051846 
L 104.66064 206.074325 
L 109.647363 198.570235 
L 114.634085 191.539576 
L 119.620807 184.982348 
L 124.60753 178.8109 
L 129.594252 172.904704 
L 134.580974 167.263023 
L 139.567696 161.87563 
L 144.554419 156.67592 
L 149.541141 151.651872 
L 154.527863 146.803484 
L 159.514585 142.12953 
L 164.501308 137.617481 
L 169.48803 133.264054 
L 174.474752 129.069247 
L 179.461475 125.033063 
L 184.448197 121.144539 
L 189.434919 117.342036 
L 194.421641 113.615939 
L 199.408364 109.966248 
L 204.395086 106.392962 
L 209.381808 102.896081 
L 214.36853 99.480553 
L 219.355253 96.152401 
L 224.341975 92.911636 
L 229.328697 89.758261 
L 234.31542 86.692275 
L 239.302142 83.713677 
L 244.288864 80.819497 
L 249.275586 77.996174 
L 254.262309 75.242033 
L 259.249031 72.557075 
L 264.235753 69.9413 
L 269.222475 67.394708 
L 274.209198 64.917299 
L 279.19592 62.509073 
L 284.182642 60.17003 
L 289.169365 57.900171 
L 294.156087 55.699494 
L 299.142809 53.568 
" style="fill:none;stroke:#a8be2a;stroke-linecap:square;stroke-width:1.5;"/>
   </g>
   <g id="line2d_49">
    <path clip-path="url(#p62362eb284)" d="M 93.80023 279.803789 
L 117.4874 242.0964 
L 137.175268 221.408842 
L 153.436515 207.247372 
L 168.807295 195.717365 
L 185.39215 184.507371 
L 210.751204 169.122695 
L 251.651107 146.901119 
L 398.487273 88.973256 
" style="fill:none;"/>
    <defs>
     <path d="M 0 3 
C 0.795609 3 1.55874 2.683901 2.12132 2.12132 
C 2.683901 1.55874 3 0.795609 3 0 
C 3 -0.795609 2.683901 -1.55874 2.12132 -2.12132 
C 1.55874 -2.683901 0.795609 -3 0 -3 
C -0.795609 -3 -1.55874 -2.683901 -2.12132 -2.12132 
C -2.683901 -1.55874 -3 -0.795609 -3 0 
C -3 0.795609 -2.683901 1.55874 -2.12132 2.12132 
C -1.55874 2.683901 -0.795609 3 0 3 
z
" id="m1ea8c004f1" style="stroke:#f2d377;"/>
    </defs>
    <g clip-path="url(#p62362eb284)">
     <use style="fill:#f2d377;stroke:#f2d377;" x="93.80023" xlink:href="#m1ea8c004f1" y="279.803789"/>
     <use style="fill:#f2d377;stroke:#f2d377;" x="117.4874" xlink:href="#m1ea8c004f1" y="242.0964"/>
     <use style="fill:#f2d377;stroke:#f2d377;" x="137.175268" xlink:href="#m1ea8c004f1" y="221.408842"/>
     <use style="fill:#f2d377;stroke:#f2d377;" x="153.436515" xlink:href="#m1ea8c004f1" y="207.247372"/>
     <use style="fill:#f2d377;stroke:#f2d377;" x="168.807295" xlink:href="#m1ea8c004f1" y="195.717365"/>
     <use style="fill:#f2d377;stroke:#f2d377;" x="185.39215" xlink:href="#m1ea8c004f1" y="184.507371"/>
     <use style="fill:#f2d377;stroke:#f2d377;" x="210.751204" xlink:href="#m1ea8c004f1" y="169.122695"/>
     <use style="fill:#f2d377;stroke:#f2d377;" x="251.651107" xlink:href="#m1ea8c004f1" y="146.901119"/>
     <use style="fill:#f2d377;stroke:#f2d377;" x="398.487273" xlink:href="#m1ea8c004f1" y="88.973256"/>
    </g>
   </g>
   <g id="line2d_50">
    <path clip-path="url(#p62362eb284)" d="M 93.80023 279.803789 
L 101.417406 266.011379 
L 109.034582 253.798998 
L 116.651759 243.166645 
L 124.268935 234.114319 
L 131.886111 226.433477 
L 139.503287 219.260446 
L 147.120463 212.502831 
L 154.737639 206.2057 
L 162.354815 200.385203 
L 169.971991 194.893721 
L 177.589167 189.649596 
L 185.206343 184.627356 
L 192.823519 179.807092 
L 200.440695 175.184037 
L 208.057871 170.687773 
L 215.675047 166.2949 
L 223.292223 162.005417 
L 230.909399 157.819326 
L 238.526575 153.731046 
L 246.143752 149.734099 
L 253.760928 145.828477 
L 261.378104 142.014178 
L 268.99528 138.291204 
L 276.612456 134.659554 
L 284.229632 131.119229 
L 291.846808 127.670227 
L 299.463984 124.31255 
L 307.08116 121.046197 
L 314.698336 117.871169 
L 322.315512 114.787465 
L 329.932688 111.795085 
L 337.549864 108.894029 
L 345.16704 106.084297 
L 352.784216 103.36589 
L 360.401392 100.738807 
L 368.018568 98.203048 
L 375.635745 95.758614 
L 383.252921 93.405504 
L 390.870097 91.143718 
L 398.487273 88.973256 
" style="fill:none;stroke:#f2d377;stroke-linecap:square;stroke-width:1.5;"/>
   </g>
   <g id="line2d_51">
    <path clip-path="url(#p62362eb284)" d="M 87.913555 227.973363 
L 95.541054 212.660646 
L 100.299044 204.320616 
L 107.006829 193.83867 
L 112.807162 185.539889 
L 117.785883 179.11414 
L 122.568399 173.120746 
L 160.006912 133.805426 
L 192.405389 106.330229 
L 211.756183 93.023459 
" style="fill:none;"/>
    <defs>
     <path d="M 0 3 
C 0.795609 3 1.55874 2.683901 2.12132 2.12132 
C 2.683901 1.55874 3 0.795609 3 0 
C 3 -0.795609 2.683901 -1.55874 2.12132 -2.12132 
C 1.55874 -2.683901 0.795609 -3 0 -3 
C -0.795609 -3 -1.55874 -2.683901 -2.12132 -2.12132 
C -2.683901 -1.55874 -3 -0.795609 -3 0 
C -3 0.795609 -2.683901 1.55874 -2.12132 2.12132 
C -1.55874 2.683901 -0.795609 3 0 3 
z
" id="m5fd060d752" style="stroke:#f24150;"/>
    </defs>
    <g clip-path="url(#p62362eb284)">
     <use style="fill:#f24150;stroke:#f24150;" x="87.913555" xlink:href="#m5fd060d752" y="227.973363"/>
     <use style="fill:#f24150;stroke:#f24150;" x="95.541054" xlink:href="#m5fd060d752" y="212.660646"/>
     <use style="fill:#f24150;stroke:#f24150;" x="100.299044" xlink:href="#m5fd060d752" y="204.320616"/>
     <use style="fill:#f24150;stroke:#f24150;" x="107.006829" xlink:href="#m5fd060d752" y="193.83867"/>
     <use style="fill:#f24150;stroke:#f24150;" x="112.807162" xlink:href="#m5fd060d752" y="185.539889"/>
     <use style="fill:#f24150;stroke:#f24150;" x="117.785883" xlink:href="#m5fd060d752" y="179.11414"/>
     <use style="fill:#f24150;stroke:#f24150;" x="122.568399" xlink:href="#m5fd060d752" y="173.120746"/>
     <use style="fill:#f24150;stroke:#f24150;" x="160.006912" xlink:href="#m5fd060d752" y="133.805426"/>
     <use style="fill:#f24150;stroke:#f24150;" x="192.405389" xlink:href="#m5fd060d752" y="106.330229"/>
     <use style="fill:#f24150;stroke:#f24150;" x="211.756183" xlink:href="#m5fd060d752" y="93.023459"/>
    </g>
   </g>
   <g id="line2d_52">
    <path clip-path="url(#p62362eb284)" d="M 87.913555 227.973363 
L 91.009621 221.464801 
L 94.105687 215.356622 
L 97.201752 209.648825 
L 100.297818 204.322658 
L 103.393884 199.335001 
L 106.489949 194.611279 
L 109.586015 190.051411 
L 112.682081 185.709078 
L 115.778147 181.661159 
L 118.874212 177.73869 
L 121.970278 173.85908 
L 125.066344 170.081007 
L 128.162409 166.411459 
L 131.258475 162.850436 
L 134.354541 159.397937 
L 137.450606 156.053964 
L 140.546672 152.818514 
L 143.642738 149.673204 
L 146.738804 146.574688 
L 149.834869 143.521146 
L 152.930935 140.512578 
L 156.027001 137.548984 
L 159.123066 134.630364 
L 162.219132 131.756718 
L 165.315198 128.928045 
L 168.411263 126.144347 
L 171.507329 123.405623 
L 174.603395 120.711873 
L 177.699461 118.065088 
L 180.795526 115.478104 
L 183.891592 112.953214 
L 186.987658 110.490419 
L 190.083723 108.089718 
L 193.179789 105.751112 
L 196.275855 103.4746 
L 199.371921 101.260183 
L 202.467986 99.10786 
L 205.564052 97.017632 
L 208.660118 94.989498 
L 211.756183 93.023459 
" style="fill:none;stroke:#f24150;stroke-linecap:square;stroke-width:1.5;"/>
   </g>
   <g id="patch_3">
    <path d="M 57.6 307.584 
L 57.6 41.472 
" style="fill:none;stroke:#000000;stroke-linecap:square;stroke-linejoin:miter;stroke-width:0.8;"/>
   </g>
   <g id="patch_4">
    <path d="M 414.72 307.584 
L 414.72 41.472 
" style="fill:none;stroke:#000000;stroke-linecap:square;stroke-linejoin:miter;stroke-width:0.8;"/>
   </g>
   <g id="patch_5">
    <path d="M 57.6 307.584 
L 414.72 307.584 
" style="fill:none;stroke:#000000;stroke-linecap:square;stroke-linejoin:miter;stroke-width:0.8;"/>
   </g>
   <g id="patch_6">
    <path d="M 57.6 41.472 
L 414.72 41.472 
" style="fill:none;stroke:#000000;stroke-linecap:square;stroke-linejoin:miter;stroke-width:0.8;"/>
   </g>
   <g id="legend_1">
    <g id="patch_7">
     <path d="M 283.735625 302.584 
L 407.72 302.584 
Q 409.72 302.584 409.72 300.584 
L 409.72 140.124625 
Q 409.72 138.124625 407.72 138.124625 
L 283.735625 138.124625 
Q 281.735625 138.124625 281.735625 140.124625 
L 281.735625 300.584 
Q 281.735625 302.584 283.735625 302.584 
z
" style="fill:#ffffff;opacity:0.8;stroke:#cccccc;stroke-linejoin:miter;"/>
    </g>
    <g id="line2d_53">
     <path d="M 285.735625 146.223062 
L 305.735625 146.223062 
" style="fill:none;stroke:#d9b3b0;stroke-linecap:square;stroke-width:1.5;"/>
    </g>
    <g id="line2d_54"/>
    <g id="text_18">
     <!-- PCS18-ReLU -->
     <defs>
      <path d="M 64.40625 67.28125 
L 64.40625 56.890625 
Q 59.421875 61.53125 53.78125 63.8125 
Q 48.140625 66.109375 41.796875 66.109375 
Q 29.296875 66.109375 22.65625 58.46875 
Q 16.015625 50.828125 16.015625 36.375 
Q 16.015625 21.96875 22.65625 14.328125 
Q 29.296875 6.6875 41.796875 6.6875 
Q 48.140625 6.6875 53.78125 8.984375 
Q 59.421875 11.28125 64.40625 15.921875 
L 64.40625 5.609375 
Q 59.234375 2.09375 53.4375 0.328125 
Q 47.65625 -1.421875 41.21875 -1.421875 
Q 24.65625 -1.421875 15.125 8.703125 
Q 5.609375 18.84375 5.609375 36.375 
Q 5.609375 53.953125 15.125 64.078125 
Q 24.65625 74.21875 41.21875 74.21875 
Q 47.75 74.21875 53.53125 72.484375 
Q 59.328125 70.75 64.40625 67.28125 
z
" id="DejaVuSans-67"/>
      <path d="M 9.8125 72.90625 
L 19.671875 72.90625 
L 19.671875 8.296875 
L 55.171875 8.296875 
L 55.171875 0 
L 9.8125 0 
z
" id="DejaVuSans-76"/>
      <path d="M 8.6875 72.90625 
L 18.609375 72.90625 
L 18.609375 28.609375 
Q 18.609375 16.890625 22.84375 11.734375 
Q 27.09375 6.59375 36.625 6.59375 
Q 46.09375 6.59375 50.34375 11.734375 
Q 54.59375 16.890625 54.59375 28.609375 
L 54.59375 72.90625 
L 64.5 72.90625 
L 64.5 27.390625 
Q 64.5 13.140625 57.4375 5.859375 
Q 50.390625 -1.421875 36.625 -1.421875 
Q 22.796875 -1.421875 15.734375 5.859375 
Q 8.6875 13.140625 8.6875 27.390625 
z
" id="DejaVuSans-85"/>
     </defs>
     <g transform="translate(313.735625 149.723062)scale(0.1 -0.1)">
      <use xlink:href="#DejaVuSans-80"/>
      <use x="60.302734" xlink:href="#DejaVuSans-67"/>
      <use x="130.126953" xlink:href="#DejaVuSans-83"/>
      <use x="193.603516" xlink:href="#DejaVuSans-49"/>
      <use x="257.226562" xlink:href="#DejaVuSans-56"/>
      <use x="320.849609" xlink:href="#DejaVuSans-45"/>
      <use x="356.933594" xlink:href="#DejaVuSans-82"/>
      <use x="426.353516" xlink:href="#DejaVuSans-101"/>
      <use x="487.876953" xlink:href="#DejaVuSans-76"/>
      <use x="543.511719" xlink:href="#DejaVuSans-85"/>
     </g>
    </g>
    <g id="line2d_55">
     <path d="M 285.735625 160.901188 
L 305.735625 160.901188 
" style="fill:none;stroke:#186ccc;stroke-linecap:square;stroke-width:1.5;"/>
    </g>
    <g id="line2d_56"/>
    <g id="text_19">
     <!-- PCS18-GDN -->
     <defs>
      <path d="M 59.515625 10.40625 
L 59.515625 29.984375 
L 43.40625 29.984375 
L 43.40625 38.09375 
L 69.28125 38.09375 
L 69.28125 6.78125 
Q 63.578125 2.734375 56.6875 0.65625 
Q 49.8125 -1.421875 42 -1.421875 
Q 24.90625 -1.421875 15.25 8.5625 
Q 5.609375 18.5625 5.609375 36.375 
Q 5.609375 54.25 15.25 64.234375 
Q 24.90625 74.21875 42 74.21875 
Q 49.125 74.21875 55.546875 72.453125 
Q 61.96875 70.703125 67.390625 67.28125 
L 67.390625 56.78125 
Q 61.921875 61.421875 55.765625 63.765625 
Q 49.609375 66.109375 42.828125 66.109375 
Q 29.4375 66.109375 22.71875 58.640625 
Q 16.015625 51.171875 16.015625 36.375 
Q 16.015625 21.625 22.71875 14.15625 
Q 29.4375 6.6875 42.828125 6.6875 
Q 48.046875 6.6875 52.140625 7.59375 
Q 56.25 8.5 59.515625 10.40625 
z
" id="DejaVuSans-71"/>
      <path d="M 19.671875 64.796875 
L 19.671875 8.109375 
L 31.59375 8.109375 
Q 46.6875 8.109375 53.6875 14.9375 
Q 60.6875 21.78125 60.6875 36.53125 
Q 60.6875 51.171875 53.6875 57.984375 
Q 46.6875 64.796875 31.59375 64.796875 
z
M 9.8125 72.90625 
L 30.078125 72.90625 
Q 51.265625 72.90625 61.171875 64.09375 
Q 71.09375 55.28125 71.09375 36.53125 
Q 71.09375 17.671875 61.125 8.828125 
Q 51.171875 0 30.078125 0 
L 9.8125 0 
z
" id="DejaVuSans-68"/>
     </defs>
     <g transform="translate(313.735625 164.401188)scale(0.1 -0.1)">
      <use xlink:href="#DejaVuSans-80"/>
      <use x="60.302734" xlink:href="#DejaVuSans-67"/>
      <use x="130.126953" xlink:href="#DejaVuSans-83"/>
      <use x="193.603516" xlink:href="#DejaVuSans-49"/>
      <use x="257.226562" xlink:href="#DejaVuSans-56"/>
      <use x="320.849609" xlink:href="#DejaVuSans-45"/>
      <use x="356.980469" xlink:href="#DejaVuSans-71"/>
      <use x="434.470703" xlink:href="#DejaVuSans-68"/>
      <use x="511.472656" xlink:href="#DejaVuSans-78"/>
     </g>
    </g>
    <g id="line2d_57">
     <path d="M 285.735625 175.579313 
L 305.735625 175.579313 
" style="fill:none;stroke:#13565c;stroke-linecap:square;stroke-width:1.5;"/>
    </g>
    <g id="line2d_58"/>
    <g id="text_20">
     <!-- ICLR18-Factorized -->
     <defs>
      <path d="M 9.8125 72.90625 
L 19.671875 72.90625 
L 19.671875 0 
L 9.8125 0 
z
" id="DejaVuSans-73"/>
      <path d="M 9.8125 72.90625 
L 51.703125 72.90625 
L 51.703125 64.59375 
L 19.671875 64.59375 
L 19.671875 43.109375 
L 48.578125 43.109375 
L 48.578125 34.8125 
L 19.671875 34.8125 
L 19.671875 0 
L 9.8125 0 
z
" id="DejaVuSans-70"/>
      <path d="M 48.78125 52.59375 
L 48.78125 44.1875 
Q 44.96875 46.296875 41.140625 47.34375 
Q 37.3125 48.390625 33.40625 48.390625 
Q 24.65625 48.390625 19.8125 42.84375 
Q 14.984375 37.3125 14.984375 27.296875 
Q 14.984375 17.28125 19.8125 11.734375 
Q 24.65625 6.203125 33.40625 6.203125 
Q 37.3125 6.203125 41.140625 7.25 
Q 44.96875 8.296875 48.78125 10.40625 
L 48.78125 2.09375 
Q 45.015625 0.34375 40.984375 -0.53125 
Q 36.96875 -1.421875 32.421875 -1.421875 
Q 20.0625 -1.421875 12.78125 6.34375 
Q 5.515625 14.109375 5.515625 27.296875 
Q 5.515625 40.671875 12.859375 48.328125 
Q 20.21875 56 33.015625 56 
Q 37.15625 56 41.109375 55.140625 
Q 45.0625 54.296875 48.78125 52.59375 
z
" id="DejaVuSans-99"/>
      <path d="M 30.609375 48.390625 
Q 23.390625 48.390625 19.1875 42.75 
Q 14.984375 37.109375 14.984375 27.296875 
Q 14.984375 17.484375 19.15625 11.84375 
Q 23.34375 6.203125 30.609375 6.203125 
Q 37.796875 6.203125 41.984375 11.859375 
Q 46.1875 17.53125 46.1875 27.296875 
Q 46.1875 37.015625 41.984375 42.703125 
Q 37.796875 48.390625 30.609375 48.390625 
z
M 30.609375 56 
Q 42.328125 56 49.015625 48.375 
Q 55.71875 40.765625 55.71875 27.296875 
Q 55.71875 13.875 49.015625 6.21875 
Q 42.328125 -1.421875 30.609375 -1.421875 
Q 18.84375 -1.421875 12.171875 6.21875 
Q 5.515625 13.875 5.515625 27.296875 
Q 5.515625 40.765625 12.171875 48.375 
Q 18.84375 56 30.609375 56 
z
" id="DejaVuSans-111"/>
      <path d="M 5.515625 54.6875 
L 48.1875 54.6875 
L 48.1875 46.484375 
L 14.40625 7.171875 
L 48.1875 7.171875 
L 48.1875 0 
L 4.296875 0 
L 4.296875 8.203125 
L 38.09375 47.515625 
L 5.515625 47.515625 
z
" id="DejaVuSans-122"/>
     </defs>
     <g transform="translate(313.735625 179.079313)scale(0.1 -0.1)">
      <use xlink:href="#DejaVuSans-73"/>
      <use x="29.492188" xlink:href="#DejaVuSans-67"/>
      <use x="99.316406" xlink:href="#DejaVuSans-76"/>
      <use x="155.029297" xlink:href="#DejaVuSans-82"/>
      <use x="224.511719" xlink:href="#DejaVuSans-49"/>
      <use x="288.134766" xlink:href="#DejaVuSans-56"/>
      <use x="351.757812" xlink:href="#DejaVuSans-45"/>
      <use x="387.841797" xlink:href="#DejaVuSans-70"/>
      <use x="445.220703" xlink:href="#DejaVuSans-97"/>
      <use x="506.5" xlink:href="#DejaVuSans-99"/>
      <use x="561.480469" xlink:href="#DejaVuSans-116"/>
      <use x="600.689453" xlink:href="#DejaVuSans-111"/>
      <use x="661.871094" xlink:href="#DejaVuSans-114"/>
      <use x="702.984375" xlink:href="#DejaVuSans-105"/>
      <use x="730.767578" xlink:href="#DejaVuSans-122"/>
      <use x="783.257812" xlink:href="#DejaVuSans-101"/>
      <use x="844.78125" xlink:href="#DejaVuSans-100"/>
     </g>
    </g>
    <g id="line2d_59">
     <path d="M 285.735625 190.257438 
L 305.735625 190.257438 
" style="fill:none;stroke:#45a0a8;stroke-linecap:square;stroke-width:1.5;"/>
    </g>
    <g id="line2d_60"/>
    <g id="text_21">
     <!-- ICLR18-HyperPrior -->
     <defs>
      <path d="M 9.8125 72.90625 
L 19.671875 72.90625 
L 19.671875 43.015625 
L 55.515625 43.015625 
L 55.515625 72.90625 
L 65.375 72.90625 
L 65.375 0 
L 55.515625 0 
L 55.515625 34.71875 
L 19.671875 34.71875 
L 19.671875 0 
L 9.8125 0 
z
" id="DejaVuSans-72"/>
      <path d="M 32.171875 -5.078125 
Q 28.375 -14.84375 24.75 -17.8125 
Q 21.140625 -20.796875 15.09375 -20.796875 
L 7.90625 -20.796875 
L 7.90625 -13.28125 
L 13.1875 -13.28125 
Q 16.890625 -13.28125 18.9375 -11.515625 
Q 21 -9.765625 23.484375 -3.21875 
L 25.09375 0.875 
L 2.984375 54.6875 
L 12.5 54.6875 
L 29.59375 11.921875 
L 46.6875 54.6875 
L 56.203125 54.6875 
z
" id="DejaVuSans-121"/>
     </defs>
     <g transform="translate(313.735625 193.757438)scale(0.1 -0.1)">
      <use xlink:href="#DejaVuSans-73"/>
      <use x="29.492188" xlink:href="#DejaVuSans-67"/>
      <use x="99.316406" xlink:href="#DejaVuSans-76"/>
      <use x="155.029297" xlink:href="#DejaVuSans-82"/>
      <use x="224.511719" xlink:href="#DejaVuSans-49"/>
      <use x="288.134766" xlink:href="#DejaVuSans-56"/>
      <use x="351.757812" xlink:href="#DejaVuSans-45"/>
      <use x="387.841797" xlink:href="#DejaVuSans-72"/>
      <use x="463.037109" xlink:href="#DejaVuSans-121"/>
      <use x="522.216797" xlink:href="#DejaVuSans-112"/>
      <use x="585.693359" xlink:href="#DejaVuSans-101"/>
      <use x="647.216797" xlink:href="#DejaVuSans-114"/>
      <use x="688.330078" xlink:href="#DejaVuSans-80"/>
      <use x="748.617188" xlink:href="#DejaVuSans-114"/>
      <use x="789.730469" xlink:href="#DejaVuSans-105"/>
      <use x="817.513672" xlink:href="#DejaVuSans-111"/>
      <use x="878.695312" xlink:href="#DejaVuSans-114"/>
     </g>
    </g>
    <g id="line2d_61">
     <path d="M 285.735625 204.935563 
L 305.735625 204.935563 
" style="fill:none;stroke:#7893ff;stroke-linecap:square;stroke-width:1.5;"/>
    </g>
    <g id="line2d_62"/>
    <g id="text_22">
     <!-- NIPS18 -->
     <g transform="translate(313.735625 208.435563)scale(0.1 -0.1)">
      <use xlink:href="#DejaVuSans-78"/>
      <use x="74.804688" xlink:href="#DejaVuSans-73"/>
      <use x="104.296875" xlink:href="#DejaVuSans-80"/>
      <use x="164.599609" xlink:href="#DejaVuSans-83"/>
      <use x="228.076172" xlink:href="#DejaVuSans-49"/>
      <use x="291.699219" xlink:href="#DejaVuSans-56"/>
     </g>
    </g>
    <g id="line2d_63">
     <path d="M 285.735625 219.613688 
L 305.735625 219.613688 
" style="fill:none;stroke:#5c371c;stroke-linecap:square;stroke-width:1.5;"/>
    </g>
    <g id="line2d_64"/>
    <g id="text_23">
     <!-- ICLR19 -->
     <defs>
      <path d="M 10.984375 1.515625 
L 10.984375 10.5 
Q 14.703125 8.734375 18.5 7.8125 
Q 22.3125 6.890625 25.984375 6.890625 
Q 35.75 6.890625 40.890625 13.453125 
Q 46.046875 20.015625 46.78125 33.40625 
Q 43.953125 29.203125 39.59375 26.953125 
Q 35.25 24.703125 29.984375 24.703125 
Q 19.046875 24.703125 12.671875 31.3125 
Q 6.296875 37.9375 6.296875 49.421875 
Q 6.296875 60.640625 12.9375 67.421875 
Q 19.578125 74.21875 30.609375 74.21875 
Q 43.265625 74.21875 49.921875 64.515625 
Q 56.59375 54.828125 56.59375 36.375 
Q 56.59375 19.140625 48.40625 8.859375 
Q 40.234375 -1.421875 26.421875 -1.421875 
Q 22.703125 -1.421875 18.890625 -0.6875 
Q 15.09375 0.046875 10.984375 1.515625 
z
M 30.609375 32.421875 
Q 37.25 32.421875 41.125 36.953125 
Q 45.015625 41.5 45.015625 49.421875 
Q 45.015625 57.28125 41.125 61.84375 
Q 37.25 66.40625 30.609375 66.40625 
Q 23.96875 66.40625 20.09375 61.84375 
Q 16.21875 57.28125 16.21875 49.421875 
Q 16.21875 41.5 20.09375 36.953125 
Q 23.96875 32.421875 30.609375 32.421875 
z
" id="DejaVuSans-57"/>
     </defs>
     <g transform="translate(313.735625 223.113688)scale(0.1 -0.1)">
      <use xlink:href="#DejaVuSans-73"/>
      <use x="29.492188" xlink:href="#DejaVuSans-67"/>
      <use x="99.316406" xlink:href="#DejaVuSans-76"/>
      <use x="155.029297" xlink:href="#DejaVuSans-82"/>
      <use x="224.511719" xlink:href="#DejaVuSans-49"/>
      <use x="288.134766" xlink:href="#DejaVuSans-57"/>
     </g>
    </g>
    <g id="line2d_65">
     <path d="M 285.735625 234.291812 
L 305.735625 234.291812 
" style="fill:none;stroke:#90995f;stroke-linecap:square;stroke-width:1.5;"/>
    </g>
    <g id="line2d_66"/>
    <g id="text_24">
     <!-- CVPR17-RNN -->
     <defs>
      <path d="M 28.609375 0 
L 0.78125 72.90625 
L 11.078125 72.90625 
L 34.1875 11.53125 
L 57.328125 72.90625 
L 67.578125 72.90625 
L 39.796875 0 
z
" id="DejaVuSans-86"/>
      <path d="M 8.203125 72.90625 
L 55.078125 72.90625 
L 55.078125 68.703125 
L 28.609375 0 
L 18.3125 0 
L 43.21875 64.59375 
L 8.203125 64.59375 
z
" id="DejaVuSans-55"/>
     </defs>
     <g transform="translate(313.735625 237.791812)scale(0.1 -0.1)">
      <use xlink:href="#DejaVuSans-67"/>
      <use x="69.824219" xlink:href="#DejaVuSans-86"/>
      <use x="138.232422" xlink:href="#DejaVuSans-80"/>
      <use x="198.535156" xlink:href="#DejaVuSans-82"/>
      <use x="268.017578" xlink:href="#DejaVuSans-49"/>
      <use x="331.640625" xlink:href="#DejaVuSans-55"/>
      <use x="395.263672" xlink:href="#DejaVuSans-45"/>
      <use x="431.347656" xlink:href="#DejaVuSans-82"/>
      <use x="500.830078" xlink:href="#DejaVuSans-78"/>
      <use x="575.634766" xlink:href="#DejaVuSans-78"/>
     </g>
    </g>
    <g id="line2d_67">
     <path d="M 285.735625 248.969938 
L 305.735625 248.969938 
" style="fill:none;stroke:#a86e45;stroke-linecap:square;stroke-width:1.5;"/>
    </g>
    <g id="line2d_68"/>
    <g id="text_25">
     <!-- CVPR18-Condition -->
     <defs>
      <path d="M 54.890625 33.015625 
L 54.890625 0 
L 45.90625 0 
L 45.90625 32.71875 
Q 45.90625 40.484375 42.875 44.328125 
Q 39.84375 48.1875 33.796875 48.1875 
Q 26.515625 48.1875 22.3125 43.546875 
Q 18.109375 38.921875 18.109375 30.90625 
L 18.109375 0 
L 9.078125 0 
L 9.078125 54.6875 
L 18.109375 54.6875 
L 18.109375 46.1875 
Q 21.34375 51.125 25.703125 53.5625 
Q 30.078125 56 35.796875 56 
Q 45.21875 56 50.046875 50.171875 
Q 54.890625 44.34375 54.890625 33.015625 
z
" id="DejaVuSans-110"/>
     </defs>
     <g transform="translate(313.735625 252.469938)scale(0.1 -0.1)">
      <use xlink:href="#DejaVuSans-67"/>
      <use x="69.824219" xlink:href="#DejaVuSans-86"/>
      <use x="138.232422" xlink:href="#DejaVuSans-80"/>
      <use x="198.535156" xlink:href="#DejaVuSans-82"/>
      <use x="268.017578" xlink:href="#DejaVuSans-49"/>
      <use x="331.640625" xlink:href="#DejaVuSans-56"/>
      <use x="395.263672" xlink:href="#DejaVuSans-45"/>
      <use x="431.347656" xlink:href="#DejaVuSans-67"/>
      <use x="501.171875" xlink:href="#DejaVuSans-111"/>
      <use x="562.353516" xlink:href="#DejaVuSans-110"/>
      <use x="625.732422" xlink:href="#DejaVuSans-100"/>
      <use x="689.208984" xlink:href="#DejaVuSans-105"/>
      <use x="716.992188" xlink:href="#DejaVuSans-116"/>
      <use x="756.201172" xlink:href="#DejaVuSans-105"/>
      <use x="783.984375" xlink:href="#DejaVuSans-111"/>
      <use x="845.166016" xlink:href="#DejaVuSans-110"/>
     </g>
    </g>
    <g id="line2d_69">
     <path d="M 285.735625 263.648062 
L 305.735625 263.648062 
" style="fill:none;stroke:#a8be2a;stroke-linecap:square;stroke-width:1.5;"/>
    </g>
    <g id="line2d_70"/>
    <g id="text_26">
     <!-- BPG-444 -->
     <g transform="translate(313.735625 267.148062)scale(0.1 -0.1)">
      <use xlink:href="#DejaVuSans-66"/>
      <use x="68.603516" xlink:href="#DejaVuSans-80"/>
      <use x="128.90625" xlink:href="#DejaVuSans-71"/>
      <use x="206.396484" xlink:href="#DejaVuSans-45"/>
      <use x="242.480469" xlink:href="#DejaVuSans-52"/>
      <use x="306.103516" xlink:href="#DejaVuSans-52"/>
      <use x="369.726562" xlink:href="#DejaVuSans-52"/>
     </g>
    </g>
    <g id="line2d_71">
     <path d="M 285.735625 278.326187 
L 305.735625 278.326187 
" style="fill:none;stroke:#f2d377;stroke-linecap:square;stroke-width:1.5;"/>
    </g>
    <g id="line2d_72"/>
    <g id="text_27">
     <!-- JPEG -->
     <defs>
      <path d="M 9.8125 72.90625 
L 19.671875 72.90625 
L 19.671875 5.078125 
Q 19.671875 -8.109375 14.671875 -14.0625 
Q 9.671875 -20.015625 -1.421875 -20.015625 
L -5.171875 -20.015625 
L -5.171875 -11.71875 
L -2.09375 -11.71875 
Q 4.4375 -11.71875 7.125 -8.046875 
Q 9.8125 -4.390625 9.8125 5.078125 
z
" id="DejaVuSans-74"/>
      <path d="M 9.8125 72.90625 
L 55.90625 72.90625 
L 55.90625 64.59375 
L 19.671875 64.59375 
L 19.671875 43.015625 
L 54.390625 43.015625 
L 54.390625 34.71875 
L 19.671875 34.71875 
L 19.671875 8.296875 
L 56.78125 8.296875 
L 56.78125 0 
L 9.8125 0 
z
" id="DejaVuSans-69"/>
     </defs>
     <g transform="translate(313.735625 281.826187)scale(0.1 -0.1)">
      <use xlink:href="#DejaVuSans-74"/>
      <use x="29.492188" xlink:href="#DejaVuSans-80"/>
      <use x="89.794922" xlink:href="#DejaVuSans-69"/>
      <use x="152.978516" xlink:href="#DejaVuSans-71"/>
     </g>
    </g>
    <g id="line2d_73">
     <path d="M 285.735625 293.004312 
L 305.735625 293.004312 
" style="fill:none;stroke:#f24150;stroke-linecap:square;stroke-width:1.5;"/>
    </g>
    <g id="line2d_74"/>
    <g id="text_28">
     <!-- Ours -->
     <defs>
      <path d="M 39.40625 66.21875 
Q 28.65625 66.21875 22.328125 58.203125 
Q 16.015625 50.203125 16.015625 36.375 
Q 16.015625 22.609375 22.328125 14.59375 
Q 28.65625 6.59375 39.40625 6.59375 
Q 50.140625 6.59375 56.421875 14.59375 
Q 62.703125 22.609375 62.703125 36.375 
Q 62.703125 50.203125 56.421875 58.203125 
Q 50.140625 66.21875 39.40625 66.21875 
z
M 39.40625 74.21875 
Q 54.734375 74.21875 63.90625 63.9375 
Q 73.09375 53.65625 73.09375 36.375 
Q 73.09375 19.140625 63.90625 8.859375 
Q 54.734375 -1.421875 39.40625 -1.421875 
Q 24.03125 -1.421875 14.8125 8.828125 
Q 5.609375 19.09375 5.609375 36.375 
Q 5.609375 53.65625 14.8125 63.9375 
Q 24.03125 74.21875 39.40625 74.21875 
z
" id="DejaVuSans-79"/>
      <path d="M 8.5 21.578125 
L 8.5 54.6875 
L 17.484375 54.6875 
L 17.484375 21.921875 
Q 17.484375 14.15625 20.5 10.265625 
Q 23.53125 6.390625 29.59375 6.390625 
Q 36.859375 6.390625 41.078125 11.03125 
Q 45.3125 15.671875 45.3125 23.6875 
L 45.3125 54.6875 
L 54.296875 54.6875 
L 54.296875 0 
L 45.3125 0 
L 45.3125 8.40625 
Q 42.046875 3.421875 37.71875 1 
Q 33.40625 -1.421875 27.6875 -1.421875 
Q 18.265625 -1.421875 13.375 4.4375 
Q 8.5 10.296875 8.5 21.578125 
z
M 31.109375 56 
z
" id="DejaVuSans-117"/>
      <path d="M 44.28125 53.078125 
L 44.28125 44.578125 
Q 40.484375 46.53125 36.375 47.5 
Q 32.28125 48.484375 27.875 48.484375 
Q 21.1875 48.484375 17.84375 46.4375 
Q 14.5 44.390625 14.5 40.28125 
Q 14.5 37.15625 16.890625 35.375 
Q 19.28125 33.59375 26.515625 31.984375 
L 29.59375 31.296875 
Q 39.15625 29.25 43.1875 25.515625 
Q 47.21875 21.78125 47.21875 15.09375 
Q 47.21875 7.46875 41.1875 3.015625 
Q 35.15625 -1.421875 24.609375 -1.421875 
Q 20.21875 -1.421875 15.453125 -0.5625 
Q 10.6875 0.296875 5.421875 2 
L 5.421875 11.28125 
Q 10.40625 8.6875 15.234375 7.390625 
Q 20.0625 6.109375 24.8125 6.109375 
Q 31.15625 6.109375 34.5625 8.28125 
Q 37.984375 10.453125 37.984375 14.40625 
Q 37.984375 18.0625 35.515625 20.015625 
Q 33.0625 21.96875 24.703125 23.78125 
L 21.578125 24.515625 
Q 13.234375 26.265625 9.515625 29.90625 
Q 5.8125 33.546875 5.8125 39.890625 
Q 5.8125 47.609375 11.28125 51.796875 
Q 16.75 56 26.8125 56 
Q 31.78125 56 36.171875 55.265625 
Q 40.578125 54.546875 44.28125 53.078125 
z
" id="DejaVuSans-115"/>
     </defs>
     <g transform="translate(313.735625 296.504312)scale(0.1 -0.1)">
      <use xlink:href="#DejaVuSans-79"/>
      <use x="78.710938" xlink:href="#DejaVuSans-117"/>
      <use x="142.089844" xlink:href="#DejaVuSans-114"/>
      <use x="183.203125" xlink:href="#DejaVuSans-115"/>
     </g>
    </g>
   </g>
  </g>
 </g>
 <defs>
  <clipPath id="p62362eb284">
   <rect height="266.112" width="357.12" x="57.6" y="41.472"/>
  </clipPath>
 </defs>
</svg>
